  0
SECTION
  2
HEADER
  9
$ACADVER
  1
AC1006
  9
$EXTMIN
 10
0.000000
 20
0.000000
 30
0.000000
  9
$EXTMAX
 10
1024.000000
 20
629.000000
 30
0.000000
  0
ENDSEC
  0
SECTION
  2
ENTITIES
  0
POLYLINE
  8
0
 66
1
 70
1
  0
VERTEX
  8
0
 10
301.301436
 20
471.933889
 42
0.040341
  0
VERTEX
  8
0
 10
274.587794
 20
467.151895
 42
0.042993
  0
VERTEX
  8
0
 10
249.576475
 20
458.200074
 42
0.043195
  0
VERTEX
  8
0
 10
226.567945
 20
445.148948
 42
0.041488
  0
VERTEX
  8
0
 10
205.807964
 20
428.180416
 42
0.040918
  0
VERTEX
  8
0
 10
186.851511
 20
406.603354
 42
0.047691
  0
VERTEX
  8
0
 10
172.737935
 20
383.256462
 42
0.046791
  0
VERTEX
  8
0
 10
163.108576
 20
357.273486
 42
0.037047
  0
VERTEX
  8
0
 10
157.526654
 20
327.826718
 42
0.006655
  0
VERTEX
  8
0
 10
156.705727
 20
319.642220
 42
0.021774
  0
VERTEX
  8
0
 10
156.471313
 20
314.208951
 42
0.022120
  0
VERTEX
  8
0
 10
156.712123
 20
308.820195
 42
0.007039
  0
VERTEX
  8
0
 10
157.538117
 20
300.826718
 42
0.002147
  0
VERTEX
  8
0
 10
158.190682
 20
295.475132
 42
0.002532
  0
VERTEX
  8
0
 10
158.855663
 20
290.416227
 42
0.002216
  0
VERTEX
  8
0
 10
159.457700
 20
286.150098
 42
0.015874
  0
VERTEX
  8
0
 10
159.822922
 20
284.100863
 42
0.000000
  0
VERTEX
  8
0
 10
160.540733
 20
280.701727
 42
0.000000
  0
VERTEX
  8
0
 10
162.352505
 20
286.600863
 42
-0.012819
  0
VERTEX
  8
0
 10
163.340584
 20
289.546763
 42
-0.004562
  0
VERTEX
  8
0
 10
164.897920
 20
293.704629
 42
-0.004524
  0
VERTEX
  8
0
 10
166.690870
 20
298.238943
 42
-0.005321
  0
VERTEX
  8
0
 10
168.473558
 20
302.500000
 42
0.011280
  0
VERTEX
  8
0
 10
170.946524
 20
308.614643
 42
0.032798
  0
VERTEX
  8
0
 10
172.276307
 20
312.972183
 42
0.029215
  0
VERTEX
  8
0
 10
173.104217
 20
317.732206
 42
0.007516
  0
VERTEX
  8
0
 10
173.873890
 20
325.500000
 42
-0.010088
  0
VERTEX
  8
0
 10
174.468992
 20
331.206657
 42
-0.007044
  0
VERTEX
  8
0
 10
175.360265
 20
337.616064
 42
-0.007109
  0
VERTEX
  8
0
 10
176.389125
 20
343.739017
 42
-0.014636
  0
VERTEX
  8
0
 10
177.401774
 20
348.490856
 42
0.006325
  0
VERTEX
  8
0
 10
178.523132
 20
353.354798
 42
0.024105
  0
VERTEX
  8
0
 10
179.036794
 20
356.425667
 42
0.035490
  0
VERTEX
  8
0
 10
179.129361
 20
358.411305
 42
0.249987
  0
VERTEX
  8
0
 10
178.669303
 20
359.225544
 42
-0.123420
  0
VERTEX
  8
0
 10
178.257938
 20
359.659540
 42
-0.391613
  0
VERTEX
  8
0
 10
178.342493
 20
360.015093
 42
-0.141375
  0
VERTEX
  8
0
 10
178.974320
 20
360.217430
 42
-0.034110
  0
VERTEX
  8
0
 10
180.083333
 20
360.173977
 42
0.212984
  0
VERTEX
  8
0
 10
180.305842
 20
360.245828
 42
0.095583
  0
VERTEX
  8
0
 10
180.495313
 20
360.496012
 42
0.069449
  0
VERTEX
  8
0
 10
180.623925
 20
360.885536
 42
0.045089
  0
VERTEX
  8
0
 10
180.666667
 20
361.358548
 42
-0.115875
  0
VERTEX
  8
0
 10
181.346380
 20
364.252127
 42
-0.004524
  0
VERTEX
  8
0
 10
186.339249
 20
374.069361
 42
-0.008921
  0
VERTEX
  8
0
 10
191.765133
 20
384.063555
 42
-0.015450
  0
VERTEX
  8
0
 10
196.673223
 20
392.139052
 42
-0.039840
  0
VERTEX
  8
0
 10
209.225055
 20
408.424160
 42
-0.035605
  0
VERTEX
  8
0
 10
224.651347
 20
423.184054
 42
-0.035460
  0
VERTEX
  8
0
 10
242.086953
 20
435.664571
 42
-0.038664
  0
VERTEX
  8
0
 10
260.628984
 20
445.155168
 42
-0.018034
  0
VERTEX
  8
0
 10
268.487171
 20
448.110523
 42
-0.010992
  0
VERTEX
  8
0
 10
277.957141
 20
451.057320
 42
-0.009100
  0
VERTEX
  8
0
 10
286.875202
 20
453.443983
 42
-0.060899
  0
VERTEX
  8
0
 10
291.423382
 20
454.000000
 42
0.162614
  0
VERTEX
  8
0
 10
293.508679
 20
454.696618
 42
0.008386
  0
VERTEX
  8
0
 10
299.187605
 20
459.118477
 42
0.013235
  0
VERTEX
  8
0
 10
305.560458
 20
464.539002
 42
0.011364
  0
VERTEX
  8
0
 10
311.977273
 20
470.565228
 42
0.000000
  0
VERTEX
  8
0
 10
314.454545
 20
473.000000
 42
0.000000
  0
VERTEX
  8
0
 10
311.977273
 20
472.863737
 42
0.006817
  0
VERTEX
  8
0
 10
310.543086
 20
472.765221
 42
0.001166
  0
VERTEX
  8
0
 10
307.819371
 20
472.534386
 42
0.001271
  0
VERTEX
  8
0
 10
304.621941
 20
472.247705
 42
0.001133
  0
SEQEND
  0
POLYLINE
  8
0
 66
1
 70
1
  0
VERTEX
  8
0
 10
177.595492
 20
361.845492
 42
-0.029814
  0
VERTEX
  8
0
 10
177.832684
 20
361.405017
 42
-0.270968
  0
VERTEX
  8
0
 10
177.812819
 20
361.196262
 42
-0.349636
  0
VERTEX
  8
0
 10
177.637119
 20
361.146880
 42
-0.038736
  0
VERTEX
  8
0
 10
177.239919
 20
361.351722
 42
0.110583
  0
VERTEX
  8
0
 10
176.793168
 20
361.506396
 42
0.119157
  0
VERTEX
  8
0
 10
176.336095
 20
361.449351
 42
0.113580
  0
VERTEX
  8
0
 10
175.939340
 20
361.185107
 42
0.093730
  0
VERTEX
  8
0
 10
175.664358
 20
360.756231
 42
-0.049580
  0
VERTEX
  8
0
 10
175.450943
 20
360.348598
 42
-0.449603
  0
VERTEX
  8
0
 10
175.274935
 20
360.323011
 42
-0.187944
  0
VERTEX
  8
0
 10
175.137062
 20
360.576253
 42
-0.020483
  0
VERTEX
  8
0
 10
175.078947
 20
361.250000
 42
-0.104361
  0
VERTEX
  8
0
 10
175.266925
 20
362.393810
 42
-0.246727
  0
VERTEX
  8
0
 10
175.899340
 20
362.944185
 42
-0.224565
  0
VERTEX
  8
0
 10
176.766298
 20
362.759903
 42
-0.091750
  0
SEQEND
  0
POLYLINE
  8
0
 66
1
 70
1
  0
VERTEX
  8
0
 10
320.393514
 20
464.390268
 42
0.009526
  0
VERTEX
  8
0
 10
301.239800
 20
447.358781
 42
0.006525
  0
VERTEX
  8
0
 10
280.127656
 20
427.336202
 42
0.006521
  0
VERTEX
  8
0
 10
259.524236
 20
406.748865
 42
0.009448
  0
VERTEX
  8
0
 10
241.917722
 20
387.994908
 42
0.019606
  0
VERTEX
  8
0
 10
207.953257
 20
347.321133
 42
0.036764
  0
VERTEX
  8
0
 10
184.376873
 20
311.573920
 42
0.046721
  0
VERTEX
  8
0
 10
170.953049
 20
281.203027
 42
0.120888
  0
VERTEX
  8
0
 10
169.000231
 20
257.498553
 42
0.036380
  0
VERTEX
  8
0
 10
170.503694
 20
251.110230
 42
0.049616
  0
VERTEX
  8
0
 10
172.822366
 20
245.671860
 42
0.048318
  0
VERTEX
  8
0
 10
176.220710
 20
240.690947
 42
0.032162
  0
VERTEX
  8
0
 10
180.983672
 20
235.675602
 42
0.067800
  0
VERTEX
  8
0
 10
192.867446
 20
227.343106
 42
0.041107
  0
VERTEX
  8
0
 10
208.752008
 20
220.740249
 42
0.032844
  0
VERTEX
  8
0
 10
229.158275
 20
215.614027
 42
0.017353
  0
VERTEX
  8
0
 10
255.000000
 20
211.820731
 42
0.023944
  0
VERTEX
  8
0
 10
272.243785
 20
210.730037
 42
0.005117
  0
VERTEX
  8
0
 10
302.265297
 20
210.578318
 42
0.005635
  0
VERTEX
  8
0
 10
333.197074
 20
211.087200
 42
0.013669
  0
VERTEX
  8
0
 10
356.000000
 20
212.343926
 42
0.004037
  0
VERTEX
  8
0
 10
374.268282
 20
214.001130
 42
0.004187
  0
VERTEX
  8
0
 10
392.286291
 20
215.934910
 42
0.004270
  0
VERTEX
  8
0
 10
409.911302
 20
218.128635
 42
0.004651
  0
VERTEX
  8
0
 10
427.000000
 20
220.565960
 42
0.001212
  0
VERTEX
  8
0
 10
438.968236
 20
222.416424
 42
0.016542
  0
VERTEX
  8
0
 10
443.298027
 20
223.244218
 42
0.048584
  0
VERTEX
  8
0
 10
445.404505
 20
223.940129
 42
0.296950
  0
VERTEX
  8
0
 10
446.000000
 20
224.854396
 42
0.408855
  0
VERTEX
  8
0
 10
445.610948
 20
225.250646
 42
0.001241
  0
VERTEX
  8
0
 10
437.782394
 20
225.374715
 42
0.005202
  0
VERTEX
  8
0
 10
428.345504
 20
225.402658
 42
0.002505
  0
VERTEX
  8
0
 10
416.250000
 20
225.252033
 42
-0.017482
  0
VERTEX
  8
0
 10
363.130621
 20
226.181633
 42
-0.025458
  0
VERTEX
  8
0
 10
316.548488
 20
231.013710
 42
-0.029365
  0
VERTEX
  8
0
 10
278.229135
 20
239.300649
 42
-0.066189
  0
VERTEX
  8
0
 10
250.958571
 20
250.955304
 42
-0.032935
  0
VERTEX
  8
0
 10
242.802359
 20
256.558141
 42
-0.034026
  0
VERTEX
  8
0
 10
235.546504
 20
263.127441
 42
-0.036465
  0
VERTEX
  8
0
 10
230.046201
 20
269.736454
 42
-0.094099
  0
VERTEX
  8
0
 10
227.449175
 20
275.346482
 42
0.028652
  0
VERTEX
  8
0
 10
227.131271
 20
276.362676
 42
0.040390
  0
VERTEX
  8
0
 10
226.726133
 20
277.220529
 42
0.046174
  0
VERTEX
  8
0
 10
226.298589
 20
277.826763
 42
0.219495
  0
VERTEX
  8
0
 10
225.922977
 20
278.000000
 42
-0.210315
  0
VERTEX
  8
0
 10
225.643778
 20
278.122874
 42
-0.139421
  0
VERTEX
  8
0
 10
225.484539
 20
278.440625
 42
-0.089679
  0
VERTEX
  8
0
 10
225.480358
 20
278.925316
 42
-0.049078
  0
VERTEX
  8
0
 10
225.638374
 20
279.500000
 42
0.048893
  0
VERTEX
  8
0
 10
225.796634
 20
280.074741
 42
0.089322
  0
VERTEX
  8
0
 10
225.793153
 20
280.559582
 42
0.138990
  0
VERTEX
  8
0
 10
225.634980
 20
280.877587
 42
0.211105
  0
VERTEX
  8
0
 10
225.356989
 20
281.000706
 42
-0.385429
  0
VERTEX
  8
0
 10
224.096559
 20
282.143730
 42
-0.019542
  0
VERTEX
  8
0
 10
223.739475
 20
288.151670
 42
-0.024782
  0
VERTEX
  8
0
 10
223.956422
 20
295.562223
 42
-0.019810
  0
VERTEX
  8
0
 10
224.900555
 20
303.496660
 42
-0.063870
  0
VERTEX
  8
0
 10
233.388996
 20
332.403820
 42
-0.031321
  0
VERTEX
  8
0
 10
250.994258
 20
366.569569
 42
-0.026360
  0
VERTEX
  8
0
 10
276.846364
 20
405.085847
 42
-0.016418
  0
VERTEX
  8
0
 10
310.912524
 20
447.500000
 42
-0.002033
  0
VERTEX
  8
0
 10
314.918957
 20
452.127616
 42
-0.001777
  0
VERTEX
  8
0
 10
319.146420
 20
456.936005
 42
-0.001786
  0
VERTEX
  8
0
 10
322.998085
 20
461.254511
 42
-0.005314
  0
VERTEX
  8
0
 10
325.678987
 20
464.175763
 42
0.011351
  0
VERTEX
  8
0
 10
328.870721
 20
467.739048
 42
0.047342
  0
VERTEX
  8
0
 10
330.527242
 20
470.093406
 42
0.154948
  0
VERTEX
  8
0
 10
330.806729
 20
471.397811
 42
0.386259
  0
VERTEX
  8
0
 10
330.143514
 20
472.000000
 42
0.164342
  0
VERTEX
  8
0
 10
329.574200
 20
471.807681
 42
0.002796
  0
VERTEX
  8
0
 10
326.926151
 20
469.764641
 42
0.006817
  0
VERTEX
  8
0
 10
323.863975
 20
467.306755
 42
0.004443
  0
SEQEND
  0
POLYLINE
  8
0
 66
1
 70
1
  0
VERTEX
  8
0
 10
337.532672
 20
462.500000
 42
0.002627
  0
VERTEX
  8
0
 10
333.145829
 20
457.546342
 42
0.061094
  0
VERTEX
  8
0
 10
332.089083
 20
455.993378
 42
0.424752
  0
VERTEX
  8
0
 10
332.331558
 20
455.280497
 42
0.108420
  0
VERTEX
  8
0
 10
333.660103
 20
454.978358
 42
-0.033531
  0
VERTEX
  8
0
 10
335.270880
 20
454.857877
 42
-0.006257
  0
VERTEX
  8
0
 10
338.200716
 20
454.402458
 42
-0.006676
  0
VERTEX
  8
0
 10
341.617477
 20
453.780451
 42
-0.006057
  0
VERTEX
  8
0
 10
345.129568
 20
453.048238
 42
-0.073359
  0
VERTEX
  8
0
 10
384.716978
 20
437.961478
 42
-0.074474
  0
VERTEX
  8
0
 10
418.033461
 20
412.145066
 42
-0.074581
  0
VERTEX
  8
0
 10
442.287436
 20
377.736762
 42
-0.073895
  0
VERTEX
  8
0
 10
455.474877
 20
337.619010
 42
-0.028982
  0
VERTEX
  8
0
 10
456.589752
 20
327.717263
 42
-0.013289
  0
VERTEX
  8
0
 10
456.948414
 20
314.723507
 42
-0.013311
  0
VERTEX
  8
0
 10
456.613916
 20
301.660741
 42
-0.027431
  0
VERTEX
  8
0
 10
455.521844
 20
291.500000
 42
-0.022562
  0
VERTEX
  8
0
 10
452.916093
 20
279.094098
 42
-0.022114
  0
VERTEX
  8
0
 10
449.189059
 20
266.888796
 42
-0.022074
  0
VERTEX
  8
0
 10
444.390776
 20
255.038520
 42
-0.022279
  0
VERTEX
  8
0
 10
438.579678
 20
243.694912
 42
0.000000
  0
VERTEX
  8
0
 10
434.154332
 20
235.929438
 42
0.000000
  0
VERTEX
  8
0
 10
443.827166
 20
236.214719
 42
0.000000
  0
VERTEX
  8
0
 10
453.500000
 20
236.500000
 42
0.000000
  0
VERTEX
  8
0
 10
458.025411
 20
245.559443
 42
0.037133
  0
VERTEX
  8
0
 10
465.819263
 20
264.572239
 42
0.032969
  0
VERTEX
  8
0
 10
471.086523
 20
285.296603
 42
0.032973
  0
VERTEX
  8
0
 10
473.583378
 20
306.530424
 42
0.037172
  0
VERTEX
  8
0
 10
473.107310
 20
327.063967
 42
0.016721
  0
VERTEX
  8
0
 10
471.315836
 20
340.668439
 42
0.019790
  0
VERTEX
  8
0
 10
468.688787
 20
353.370637
 42
0.018166
  0
VERTEX
  8
0
 10
465.695422
 20
363.786441
 42
0.123129
  0
VERTEX
  8
0
 10
462.865056
 20
368.288955
 42
-0.047775
  0
VERTEX
  8
0
 10
462.151285
 20
369.118126
 42
-0.038455
  0
VERTEX
  8
0
 10
461.547860
 20
370.128462
 42
-0.039804
  0
VERTEX
  8
0
 10
461.134166
 20
371.158362
 42
-0.075742
  0
VERTEX
  8
0
 10
461.000000
 20
372.038955
 42
0.086061
  0
VERTEX
  8
0
 10
460.735470
 20
373.564442
 42
0.416018
  0
VERTEX
  8
0
 10
460.018218
 20
373.901164
 42
0.184470
  0
VERTEX
  8
0
 10
459.057150
 20
373.067727
 42
0.039053
  0
VERTEX
  8
0
 10
458.149845
 20
371.000000
 42
-0.014669
  0
VERTEX
  8
0
 10
457.710875
 20
369.850417
 42
-0.022215
  0
VERTEX
  8
0
 10
457.256359
 20
368.881250
 42
-0.018366
  0
VERTEX
  8
0
 10
456.833931
 20
368.142901
 42
-0.259180
  0
VERTEX
  8
0
 10
456.576770
 20
368.000000
 42
-0.423070
  0
VERTEX
  8
0
 10
456.429561
 20
368.151715
 42
-0.035704
  0
VERTEX
  8
0
 10
456.490866
 20
368.753498
 42
-0.030670
  0
VERTEX
  8
0
 10
456.688340
 20
369.581128
 42
-0.016946
  0
VERTEX
  8
0
 10
457.024751
 20
370.565100
 42
0.006611
  0
VERTEX
  8
0
 10
457.833135
 20
372.778990
 42
0.108811
  0
VERTEX
  8
0
 10
457.926916
 20
373.556033
 42
0.470760
  0
VERTEX
  8
0
 10
457.613442
 20
373.767820
 42
0.059168
  0
VERTEX
  8
0
 10
456.750000
 20
373.398692
 42
-0.015014
  0
VERTEX
  8
0
 10
456.271424
 20
373.142093
 42
-0.226751
  0
VERTEX
  8
0
 10
456.087764
 20
373.139122
 42
-0.476478
  0
VERTEX
  8
0
 10
456.057838
 20
373.255494
 42
-0.025923
  0
VERTEX
  8
0
 10
456.333333
 20
373.589675
 42
-0.059339
  0
VERTEX
  8
0
 10
456.737982
 20
373.938176
 42
-0.041351
  0
VERTEX
  8
0
 10
457.264583
 20
374.232592
 42
-0.041675
  0
VERTEX
  8
0
 10
457.825657
 20
374.433490
 42
-0.065226
  0
VERTEX
  8
0
 10
458.333333
 20
374.500000
 42
0.180499
  0
VERTEX
  8
0
 10
458.787600
 20
374.669512
 42
0.085008
  0
VERTEX
  8
0
 10
459.190622
 20
375.160937
 42
0.067309
  0
VERTEX
  8
0
 10
459.483863
 20
375.889069
 42
0.049555
  0
VERTEX
  8
0
 10
459.613464
 20
376.750000
 42
0.041210
  0
VERTEX
  8
0
 10
459.585896
 20
377.611564
 42
0.062471
  0
VERTEX
  8
0
 10
459.408528
 20
378.339063
 42
0.084148
  0
VERTEX
  8
0
 10
459.118879
 20
378.831359
 42
0.221278
  0
VERTEX
  8
0
 10
458.756475
 20
379.000000
 42
0.217503
  0
VERTEX
  8
0
 10
458.442799
 20
378.856773
 42
0.136338
  0
VERTEX
  8
0
 10
458.266799
 20
378.485937
 42
0.086807
  0
VERTEX
  8
0
 10
458.267399
 20
377.920539
 42
0.047416
  0
VERTEX
  8
0
 10
458.452257
 20
377.250000
 42
-0.010180
  0
VERTEX
  8
0
 10
458.765696
 20
376.373425
 42
-0.254690
  0
VERTEX
  8
0
 10
458.722483
 20
376.130052
 42
-0.426702
  0
VERTEX
  8
0
 10
458.535803
 20
376.113268
 42
-0.016105
  0
VERTEX
  8
0
 10
457.966605
 20
376.642641
 42
-0.082735
  0
VERTEX
  8
0
 10
457.484962
 20
377.311150
 42
-0.118364
  0
VERTEX
  8
0
 10
457.323562
 20
378.020873
 42
-0.088731
  0
VERTEX
  8
0
 10
457.487038
 20
378.875410
 42
-0.031355
  0
VERTEX
  8
0
 10
458.007127
 20
380.013318
 42
0.008608
  0
VERTEX
  8
0
 10
458.602851
 20
381.174037
 42
0.121143
  0
VERTEX
  8
0
 10
458.702399
 20
381.628036
 42
0.513017
  0
VERTEX
  8
0
 10
458.523118
 20
381.750038
 42
0.050815
  0
VERTEX
  8
0
 10
457.970036
 20
381.481481
 42
-0.045171
  0
VERTEX
  8
0
 10
457.459409
 20
381.226394
 42
-0.275278
  0
VERTEX
  8
0
 10
457.180075
 20
381.272688
 42
-0.264458
  0
VERTEX
  8
0
 10
457.080294
 20
381.544157
 42
-0.042722
  0
VERTEX
  8
0
 10
457.225126
 20
382.110804
 42
0.199070
  0
VERTEX
  8
0
 10
457.104584
 20
384.209538
 42
0.011153
  0
VERTEX
  8
0
 10
454.068547
 20
390.146933
 42
0.015372
  0
VERTEX
  8
0
 10
449.901075
 20
397.329874
 42
0.009568
  0
VERTEX
  8
0
 10
444.599458
 20
405.500000
 42
0.030631
  0
VERTEX
  8
0
 10
437.650855
 20
414.527824
 42
0.015033
  0
VERTEX
  8
0
 10
427.788951
 20
425.171535
 42
0.015041
  0
VERTEX
  8
0
 10
417.217086
 20
435.287460
 42
0.028225
  0
VERTEX
  8
0
 10
408.000000
 20
442.693029
 42
0.017432
  0
VERTEX
  8
0
 10
399.989667
 20
448.004937
 42
0.012909
  0
VERTEX
  8
0
 10
390.792189
 20
453.330771
 42
0.012935
  0
VERTEX
  8
0
 10
381.362508
 20
458.158636
 42
0.017881
  0
VERTEX
  8
0
 10
372.651117
 20
461.961068
 42
0.017253
  0
VERTEX
  8
0
 10
366.400222
 20
464.181391
 42
0.005936
  0
VERTEX
  8
0
 10
357.215937
 20
466.971448
 42
0.003382
  0
VERTEX
  8
0
 10
347.929313
 20
469.604604
 42
0.067484
  0
VERTEX
  8
0
 10
345.013093
 20
470.000000
 42
0.195593
  0
VERTEX
  8
0
 10
344.527827
 20
469.802620
 42
0.003522
  0
VERTEX
  8
0
 10
342.498938
 20
467.796875
 42
0.008200
  0
VERTEX
  8
0
 10
340.160880
 20
465.374515
 42
0.005312
  0
SEQEND
  0
POLYLINE
  8
0
 66
1
 70
1
  0
VERTEX
  8
0
 10
647.000000
 20
421.610661
 42
0.000000
  0
VERTEX
  8
0
 10
647.000000
 20
414.221322
 42
0.000000
  0
VERTEX
  8
0
 10
638.511477
 20
414.750902
 42
0.011010
  0
VERTEX
  8
0
 10
634.079498
 20
414.929554
 42
0.027577
  0
VERTEX
  8
0
 10
630.845747
 20
414.810267
 42
0.035166
  0
VERTEX
  8
0
 10
628.152714
 20
414.369268
 42
0.033060
  0
VERTEX
  8
0
 10
625.490182
 20
413.549401
 42
0.069731
  0
VERTEX
  8
0
 10
621.655424
 20
411.434277
 42
0.125731
  0
VERTEX
  8
0
 10
619.419765
 20
408.654692
 42
0.086065
  0
VERTEX
  8
0
 10
618.305781
 20
404.390127
 42
0.020954
  0
VERTEX
  8
0
 10
618.000000
 20
397.096713
 42
0.033514
  0
VERTEX
  8
0
 10
618.617995
 20
387.886996
 42
0.146913
  0
VERTEX
  8
0
 10
620.845151
 20
382.975731
 42
0.159780
  0
VERTEX
  8
0
 10
625.290178
 20
380.332762
 42
0.041732
  0
VERTEX
  8
0
 10
633.624909
 20
379.191056
 42
0.024215
  0
VERTEX
  8
0
 10
640.332960
 20
379.162228
 42
0.060953
  0
VERTEX
  8
0
 10
645.144429
 20
379.967755
 42
0.085260
  0
VERTEX
  8
0
 10
648.596115
 20
381.668206
 42
0.099167
  0
VERTEX
  8
0
 10
651.073656
 20
384.353094
 42
0.077768
  0
VERTEX
  8
0
 10
652.130011
 20
386.905921
 42
0.039230
  0
VERTEX
  8
0
 10
652.681960
 20
390.354580
 42
0.017725
  0
VERTEX
  8
0
 10
652.937941
 20
396.060164
 42
0.002302
  0
VERTEX
  8
0
 10
652.996262
 20
408.250000
 42
0.000000
  0
VERTEX
  8
0
 10
653.000000
 20
429.000000
 42
0.000000
  0
VERTEX
  8
0
 10
650.000000
 20
429.000000
 42
0.000000
  0
VERTEX
  8
0
 10
647.000000
 20
429.000000
 42
0.000000
  0
SEQEND
  0
POLYLINE
  8
0
 66
1
 70
1
  0
VERTEX
  8
0
 10
644.139216
 20
406.088353
 42
-0.064388
  0
VERTEX
  8
0
 10
645.402205
 20
404.763611
 42
-0.093651
  0
VERTEX
  8
0
 10
646.097050
 20
403.311040
 42
-0.054802
  0
VERTEX
  8
0
 10
646.419449
 20
401.176853
 42
-0.010110
  0
VERTEX
  8
0
 10
646.500000
 20
397.193341
 42
-0.032598
  0
VERTEX
  8
0
 10
646.096703
 20
391.014089
 42
-0.163006
  0
VERTEX
  8
0
 10
644.596772
 20
387.936680
 42
-0.165948
  0
VERTEX
  8
0
 10
641.563007
 20
386.413867
 42
-0.034091
  0
VERTEX
  8
0
 10
635.500000
 20
386.000000
 42
-0.034091
  0
VERTEX
  8
0
 10
629.436993
 20
386.413867
 42
-0.165948
  0
VERTEX
  8
0
 10
626.403228
 20
387.936680
 42
-0.163006
  0
VERTEX
  8
0
 10
624.903297
 20
391.014089
 42
-0.032598
  0
VERTEX
  8
0
 10
624.500000
 20
397.193341
 42
-0.039441
  0
VERTEX
  8
0
 10
624.953216
 20
402.929864
 42
-0.160503
  0
VERTEX
  8
0
 10
626.535849
 20
405.999934
 42
-0.157721
  0
VERTEX
  8
0
 10
629.652308
 20
407.558240
 42
-0.037718
  0
VERTEX
  8
0
 10
635.500000
 20
408.000000
 42
-0.015682
  0
VERTEX
  8
0
 10
638.639040
 20
407.901523
 42
-0.038780
  0
VERTEX
  8
0
 10
640.917449
 20
407.579877
 42
-0.052076
  0
VERTEX
  8
0
 10
642.670762
 20
406.995293
 42
-0.063780
  0
SEQEND
  0
POLYLINE
  8
0
 66
1
 70
1
  0
VERTEX
  8
0
 10
690.816121
 20
426.495774
 42
0.044143
  0
VERTEX
  8
0
 10
690.144150
 20
424.591894
 42
0.221728
  0
VERTEX
  8
0
 10
690.346933
 20
423.510244
 42
0.203044
  0
VERTEX
  8
0
 10
691.328108
 20
422.910790
 42
0.036966
  0
VERTEX
  8
0
 10
693.500000
 20
422.750000
 42
0.021617
  0
VERTEX
  8
0
 10
695.489364
 20
422.836049
 42
0.158640
  0
VERTEX
  8
0
 10
696.354629
 20
423.203013
 42
0.138121
  0
VERTEX
  8
0
 10
696.898493
 20
424.032186
 42
0.015029
  0
VERTEX
  8
0
 10
697.527124
 20
426.252050
 42
0.025700
  0
VERTEX
  8
0
 10
697.849698
 20
427.889426
 42
0.220804
  0
VERTEX
  8
0
 10
697.640809
 20
428.585594
 42
0.194059
  0
VERTEX
  8
0
 10
696.953540
 20
428.927216
 42
0.019489
  0
VERTEX
  8
0
 10
695.086969
 20
429.000000
 42
0.041617
  0
VERTEX
  8
0
 10
693.516527
 20
428.869060
 42
0.091240
  0
VERTEX
  8
0
 10
692.386915
 20
428.458833
 42
0.098739
  0
VERTEX
  8
0
 10
691.532432
 20
427.698496
 42
0.054872
  0
SEQEND
  0
POLYLINE
  8
0
 66
1
 70
1
  0
VERTEX
  8
0
 10
557.500000
 20
413.597485
 42
0.065528
  0
VERTEX
  8
0
 10
553.606498
 20
411.228770
 42
0.137502
  0
VERTEX
  8
0
 10
551.564726
 20
408.369281
 42
0.072026
  0
VERTEX
  8
0
 10
550.597412
 20
403.669548
 42
0.009183
  0
VERTEX
  8
0
 10
550.175096
 20
393.329261
 42
0.000000
  0
VERTEX
  8
0
 10
549.850192
 20
378.862110
 42
0.000000
  0
VERTEX
  8
0
 10
553.175096
 20
379.181055
 42
0.000000
  0
VERTEX
  8
0
 10
556.500000
 20
379.500000
 42
0.000000
  0
VERTEX
  8
0
 10
556.759193
 20
392.000000
 42
-0.012796
  0
VERTEX
  8
0
 10
557.201786
 20
401.547523
 42
-0.114752
  0
VERTEX
  8
0
 10
558.434321
 20
405.526056
 42
-0.206596
  0
VERTEX
  8
0
 10
561.005512
 20
407.418176
 42
-0.056799
  0
VERTEX
  8
0
 10
566.110784
 20
408.000000
 42
0.000000
  0
VERTEX
  8
0
 10
571.000000
 20
408.000000
 42
0.000000
  0
VERTEX
  8
0
 10
571.000000
 20
411.500000
 42
0.000000
  0
VERTEX
  8
0
 10
571.000000
 20
415.000000
 42
0.000000
  0
VERTEX
  8
0
 10
565.750000
 20
414.960858
 42
0.021387
  0
VERTEX
  8
0
 10
563.520016
 20
414.848766
 42
0.017698
  0
VERTEX
  8
0
 10
561.160937
 20
414.544221
 42
0.018059
  0
VERTEX
  8
0
 10
559.015508
 20
414.109563
 42
0.044951
  0
SEQEND
  0
POLYLINE
  8
0
 66
1
 70
1
  0
VERTEX
  8
0
 10
582.093664
 20
413.693558
 42
0.079317
  0
VERTEX
  8
0
 10
578.462419
 20
411.731771
 42
0.112119
  0
VERTEX
  8
0
 10
576.120139
 20
408.916013
 42
0.082074
  0
VERTEX
  8
0
 10
574.780273
 20
404.686287
 42
0.027163
  0
VERTEX
  8
0
 10
574.201637
 20
398.178361
 42
0.049269
  0
VERTEX
  8
0
 10
574.804151
 20
388.790462
 42
0.147461
  0
VERTEX
  8
0
 10
577.602589
 20
383.075710
 42
0.152755
  0
VERTEX
  8
0
 10
583.019553
 20
379.978090
 42
0.054125
  0
VERTEX
  8
0
 10
592.000000
 20
379.003108
 42
0.053768
  0
VERTEX
  8
0
 10
600.688229
 20
379.940109
 42
0.143609
  0
VERTEX
  8
0
 10
606.101620
 20
382.898380
 42
0.143609
  0
VERTEX
  8
0
 10
609.059891
 20
388.311771
 42
0.053768
  0
VERTEX
  8
0
 10
609.996892
 20
397.000000
 42
0.053878
  0
VERTEX
  8
0
 10
609.065535
 20
405.618160
 42
0.140294
  0
VERTEX
  8
0
 10
606.135137
 20
411.058642
 42
0.144276
  0
VERTEX
  8
0
 10
600.832170
 20
414.034537
 42
0.058228
  0
VERTEX
  8
0
 10
592.500000
 20
414.942004
 42
0.014616
  0
VERTEX
  8
0
 10
589.570159
 20
414.833339
 42
0.013275
  0
VERTEX
  8
0
 10
586.555639
 20
414.552631
 42
0.013425
  0
VERTEX
  8
0
 10
583.872824
 20
414.157455
 42
0.041005
  0
SEQEND
  0
POLYLINE
  8
0
 66
1
 70
1
  0
VERTEX
  8
0
 10
601.000000
 20
406.000000
 42
-0.073855
  0
VERTEX
  8
0
 10
602.004865
 20
404.644583
 42
-0.068065
  0
VERTEX
  8
0
 10
602.607143
 20
403.017857
 42
-0.043171
  0
VERTEX
  8
0
 10
602.914490
 20
400.709735
 42
-0.011523
  0
VERTEX
  8
0
 10
603.000000
 20
397.000000
 42
-0.011523
  0
VERTEX
  8
0
 10
602.914490
 20
393.290265
 42
-0.043171
  0
VERTEX
  8
0
 10
602.607143
 20
390.982143
 42
-0.068065
  0
VERTEX
  8
0
 10
602.004865
 20
389.355417
 42
-0.073855
  0
VERTEX
  8
0
 10
601.000000
 20
388.000000
 42
-0.073855
  0
VERTEX
  8
0
 10
599.644583
 20
386.995135
 42
-0.068065
  0
VERTEX
  8
0
 10
598.017857
 20
386.392857
 42
-0.043171
  0
VERTEX
  8
0
 10
595.709735
 20
386.085510
 42
-0.011523
  0
VERTEX
  8
0
 10
592.000000
 20
386.000000
 42
-0.033937
  0
VERTEX
  8
0
 10
585.959437
 20
386.410473
 42
-0.163869
  0
VERTEX
  8
0
 10
582.918951
 20
387.918951
 42
-0.163869
  0
VERTEX
  8
0
 10
581.410473
 20
390.959437
 42
-0.033937
  0
VERTEX
  8
0
 10
581.000000
 20
397.000000
 42
-0.033937
  0
VERTEX
  8
0
 10
581.410473
 20
403.040563
 42
-0.163869
  0
VERTEX
  8
0
 10
582.918951
 20
406.081049
 42
-0.163869
  0
VERTEX
  8
0
 10
585.959437
 20
407.589527
 42
-0.033937
  0
VERTEX
  8
0
 10
592.000000
 20
408.000000
 42
-0.011523
  0
VERTEX
  8
0
 10
595.709735
 20
407.914490
 42
-0.043171
  0
VERTEX
  8
0
 10
598.017857
 20
407.607143
 42
-0.068065
  0
VERTEX
  8
0
 10
599.644583
 20
407.004865
 42
-0.073855
  0
SEQEND
  0
POLYLINE
  8
0
 66
1
 70
1
  0
VERTEX
  8
0
 10
669.500000
 20
413.597485
 42
0.065528
  0
VERTEX
  8
0
 10
665.606498
 20
411.228770
 42
0.137502
  0
VERTEX
  8
0
 10
663.564726
 20
408.369281
 42
0.072026
  0
VERTEX
  8
0
 10
662.597412
 20
403.669548
 42
0.009183
  0
VERTEX
  8
0
 10
662.175096
 20
393.329261
 42
0.000000
  0
VERTEX
  8
0
 10
661.850192
 20
378.862110
 42
0.000000
  0
VERTEX
  8
0
 10
665.175096
 20
379.181055
 42
0.000000
  0
VERTEX
  8
0
 10
668.500000
 20
379.500000
 42
0.000000
  0
VERTEX
  8
0
 10
668.759193
 20
392.000000
 42
-0.012796
  0
VERTEX
  8
0
 10
669.201786
 20
401.547523
 42
-0.114752
  0
VERTEX
  8
0
 10
670.434321
 20
405.526056
 42
-0.206596
  0
VERTEX
  8
0
 10
673.005512
 20
407.418176
 42
-0.056799
  0
VERTEX
  8
0
 10
678.110784
 20
408.000000
 42
0.000000
  0
VERTEX
  8
0
 10
683.000000
 20
408.000000
 42
0.000000
  0
VERTEX
  8
0
 10
683.000000
 20
411.500000
 42
0.000000
  0
VERTEX
  8
0
 10
683.000000
 20
415.000000
 42
0.000000
  0
VERTEX
  8
0
 10
677.750000
 20
414.960858
 42
0.021387
  0
VERTEX
  8
0
 10
675.520016
 20
414.848766
 42
0.017698
  0
VERTEX
  8
0
 10
673.160937
 20
414.544221
 42
0.018059
  0
VERTEX
  8
0
 10
671.015508
 20
414.109563
 42
0.044951
  0
SEQEND
  0
POLYLINE
  8
0
 66
1
 70
1
  0
VERTEX
  8
0
 10
689.000000
 20
397.000000
 42
0.000000
  0
VERTEX
  8
0
 10
689.000000
 20
379.000000
 42
0.000000
  0
VERTEX
  8
0
 10
692.500000
 20
379.000000
 42
0.000000
  0
VERTEX
  8
0
 10
696.000000
 20
379.000000
 42
0.000000
  0
VERTEX
  8
0
 10
696.000000
 20
397.000000
 42
0.000000
  0
VERTEX
  8
0
 10
696.000000
 20
415.000000
 42
0.000000
  0
VERTEX
  8
0
 10
692.500000
 20
415.000000
 42
0.000000
  0
VERTEX
  8
0
 10
689.000000
 20
415.000000
 42
0.000000
  0
SEQEND
  0
POLYLINE
  8
0
 66
1
 70
1
  0
VERTEX
  8
0
 10
712.093664
 20
413.752321
 42
0.076669
  0
VERTEX
  8
0
 10
708.304521
 20
411.655931
 42
0.121551
  0
VERTEX
  8
0
 10
706.011222
 20
408.764249
 42
0.084222
  0
VERTEX
  8
0
 10
704.833929
 20
404.348266
 42
0.023127
  0
VERTEX
  8
0
 10
704.500000
 20
397.132690
 42
0.007975
  0
VERTEX
  8
0
 10
704.581011
 20
392.053654
 42
0.028302
  0
VERTEX
  8
0
 10
704.868751
 20
388.810375
 42
0.044237
  0
VERTEX
  8
0
 10
705.417883
 20
386.501453
 42
0.064623
  0
VERTEX
  8
0
 10
706.327781
 20
384.622495
 42
0.091841
  0
VERTEX
  8
0
 10
708.992222
 20
381.837103
 42
0.082740
  0
VERTEX
  8
0
 10
712.572862
 20
380.066128
 42
0.060697
  0
VERTEX
  8
0
 10
717.472049
 20
379.210180
 42
0.024879
  0
VERTEX
  8
0
 10
724.233871
 20
379.196838
 42
-0.003818
  0
VERTEX
  8
0
 10
729.885795
 20
379.423824
 42
-0.059271
  0
VERTEX
  8
0
 10
731.816495
 20
379.257570
 42
-0.217184
  0
VERTEX
  8
0
 10
732.673615
 20
378.629965
 42
-0.128460
  0
VERTEX
  8
0
 10
733.000000
 20
377.380556
 42
-0.092976
  0
VERTEX
  8
0
 10
732.811340
 20
376.374760
 42
-0.044551
  0
VERTEX
  8
0
 10
732.226010
 20
375.192987
 42
-0.042089
  0
VERTEX
  8
0
 10
731.373251
 20
374.030869
 42
-0.046809
  0
VERTEX
  8
0
 10
730.365141
 20
373.072580
 42
-0.065034
  0
VERTEX
  8
0
 10
728.534342
 20
371.983509
 42
-0.060683
  0
VERTEX
  8
0
 10
726.441982
 20
371.369295
 42
-0.034291
  0
VERTEX
  8
0
 10
723.377768
 20
371.074978
 42
-0.006800
  0
VERTEX
  8
0
 10
717.865141
 20
371.000000
 42
0.000000
  0
VERTEX
  8
0
 10
708.000000
 20
371.000000
 42
0.000000
  0
VERTEX
  8
0
 10
708.000000
 20
368.000000
 42
0.000000
  0
VERTEX
  8
0
 10
708.000000
 20
365.000000
 42
0.000000
  0
VERTEX
  8
0
 10
719.750000
 20
365.003738
 42
0.032479
  0
VERTEX
  8
0
 10
731.654173
 20
365.781619
 42
0.193706
  0
VERTEX
  8
0
 10
736.970390
 20
368.775279
 42
0.151898
  0
VERTEX
  8
0
 10
739.441533
 20
375.075834
 42
0.017971
  0
VERTEX
  8
0
 10
739.994423
 20
390.282119
 42
0.020290
  0
VERTEX
  8
0
 10
739.454883
 20
403.706447
 42
0.128082
  0
VERTEX
  8
0
 10
737.219936
 20
410.115735
 42
0.185131
  0
VERTEX
  8
0
 10
732.569620
 20
413.396358
 42
0.052373
  0
VERTEX
  8
0
 10
723.643394
 20
414.687182
 42
0.013547
  0
VERTEX
  8
0
 10
720.116665
 20
414.729052
 42
0.016388
  0
VERTEX
  8
0
 10
716.810788
 20
414.570269
 42
0.017635
  0
VERTEX
  8
0
 10
713.999339
 20
414.242579
 42
0.050295
  0
SEQEND
  0
POLYLINE
  8
0
 66
1
 70
1
  0
VERTEX
  8
0
 10
731.000000
 20
406.000000
 42
-0.073855
  0
VERTEX
  8
0
 10
732.004865
 20
404.644583
 42
-0.068065
  0
VERTEX
  8
0
 10
732.607143
 20
403.017857
 42
-0.043171
  0
VERTEX
  8
0
 10
732.914490
 20
400.709735
 42
-0.011523
  0
VERTEX
  8
0
 10
733.000000
 20
397.000000
 42
-0.011523
  0
VERTEX
  8
0
 10
732.914490
 20
393.290265
 42
-0.043171
  0
VERTEX
  8
0
 10
732.607143
 20
390.982143
 42
-0.068065
  0
VERTEX
  8
0
 10
732.004865
 20
389.355417
 42
-0.073855
  0
VERTEX
  8
0
 10
731.000000
 20
388.000000
 42
-0.073855
  0
VERTEX
  8
0
 10
729.644583
 20
386.995135
 42
-0.068065
  0
VERTEX
  8
0
 10
728.017857
 20
386.392857
 42
-0.043171
  0
VERTEX
  8
0
 10
725.709735
 20
386.085510
 42
-0.011523
  0
VERTEX
  8
0
 10
722.000000
 20
386.000000
 42
-0.033937
  0
VERTEX
  8
0
 10
715.959437
 20
386.410473
 42
-0.163869
  0
VERTEX
  8
0
 10
712.918951
 20
387.918951
 42
-0.163869
  0
VERTEX
  8
0
 10
711.410473
 20
390.959437
 42
-0.033937
  0
VERTEX
  8
0
 10
711.000000
 20
397.000000
 42
-0.033937
  0
VERTEX
  8
0
 10
711.410473
 20
403.040563
 42
-0.163869
  0
VERTEX
  8
0
 10
712.918951
 20
406.081049
 42
-0.163869
  0
VERTEX
  8
0
 10
715.959437
 20
407.589527
 42
-0.033937
  0
VERTEX
  8
0
 10
722.000000
 20
408.000000
 42
-0.011523
  0
VERTEX
  8
0
 10
725.709735
 20
407.914490
 42
-0.043171
  0
VERTEX
  8
0
 10
728.017857
 20
407.607143
 42
-0.068065
  0
VERTEX
  8
0
 10
729.644583
 20
407.004865
 42
-0.073855
  0
SEQEND
  0
POLYLINE
  8
0
 66
1
 70
1
  0
VERTEX
  8
0
 10
748.348991
 20
413.467074
 42
0.084334
  0
VERTEX
  8
0
 10
748.131353
 20
412.383072
 42
0.004256
  0
VERTEX
  8
0
 10
748.054060
 20
408.764545
 42
0.006722
  0
VERTEX
  8
0
 10
748.056648
 20
404.443400
 42
0.004809
  0
VERTEX
  8
0
 10
748.171006
 20
399.611085
 42
0.013878
  0
VERTEX
  8
0
 10
748.725318
 20
390.540372
 42
0.071770
  0
VERTEX
  8
0
 10
749.878224
 20
385.662234
 42
0.122426
  0
VERTEX
  8
0
 10
752.049806
 20
382.614079
 42
0.078249
  0
VERTEX
  8
0
 10
755.772153
 20
380.321841
 42
0.080904
  0
VERTEX
  8
0
 10
760.774944
 20
379.127637
 42
0.032124
  0
VERTEX
  8
0
 10
767.857733
 20
379.066447
 42
0.031045
  0
VERTEX
  8
0
 10
774.713029
 20
379.876760
 42
0.115282
  0
VERTEX
  8
0
 10
778.677416
 20
381.596399
 42
0.070318
  0
VERTEX
  8
0
 10
781.518647
 20
384.402811
 42
0.098728
  0
VERTEX
  8
0
 10
783.078864
 20
387.597235
 42
0.054792
  0
VERTEX
  8
0
 10
783.800409
 20
392.435332
 42
0.009365
  0
VERTEX
  8
0
 10
783.985258
 20
401.750000
 42
0.000000
  0
VERTEX
  8
0
 10
784.000000
 20
415.000000
 42
0.000000
  0
VERTEX
  8
0
 10
780.500000
 20
415.000000
 42
0.000000
  0
VERTEX
  8
0
 10
777.000000
 20
415.000000
 42
0.000000
  0
VERTEX
  8
0
 10
777.000000
 20
402.056704
 42
-0.012249
  0
VERTEX
  8
0
 10
776.751477
 20
391.913462
 42
-0.141181
  0
VERTEX
  8
0
 10
775.475276
 20
388.181513
 42
-0.210957
  0
VERTEX
  8
0
 10
772.604989
 20
386.441519
 42
-0.032300
  0
VERTEX
  8
0
 10
765.777494
 20
386.000000
 42
-0.040095
  0
VERTEX
  8
0
 10
759.419176
 20
386.510690
 42
-0.211025
  0
VERTEX
  8
0
 10
756.550964
 20
388.374477
 42
-0.132558
  0
VERTEX
  8
0
 10
755.261658
 20
392.330842
 42
-0.012863
  0
VERTEX
  8
0
 10
755.000000
 20
402.500000
 42
0.000000
  0
VERTEX
  8
0
 10
755.000000
 20
415.000000
 42
0.000000
  0
VERTEX
  8
0
 10
751.968615
 20
415.000000
 42
0.042007
  0
VERTEX
  8
0
 10
750.704809
 20
414.893636
 42
0.058235
  0
VERTEX
  8
0
 10
749.614481
 20
414.575066
 42
0.070085
  0
VERTEX
  8
0
 10
748.798013
 20
414.085047
 42
0.131730
  0
SEQEND
  0
POLYLINE
  8
0
 66
1
 70
1
  0
VERTEX
  8
0
 10
800.093664
 20
413.752321
 42
0.077078
  0
VERTEX
  8
0
 10
796.450139
 20
411.732618
 42
0.110890
  0
VERTEX
  8
0
 10
794.111273
 20
408.898247
 42
0.081792
  0
VERTEX
  8
0
 10
792.777945
 20
404.675003
 42
0.027062
  0
VERTEX
  8
0
 10
792.201637
 20
398.178361
 42
0.049341
  0
VERTEX
  8
0
 10
792.837623
 20
388.291113
 42
0.168841
  0
VERTEX
  8
0
 10
795.866891
 20
382.711174
 42
0.149589
  0
VERTEX
  8
0
 10
801.975563
 20
379.820929
 42
0.036218
  0
VERTEX
  8
0
 10
813.250000
 20
379.001554
 42
0.000000
  0
VERTEX
  8
0
 10
824.000000
 20
379.000000
 42
0.000000
  0
VERTEX
  8
0
 10
824.000000
 20
382.500000
 42
0.000000
  0
VERTEX
  8
0
 10
824.000000
 20
386.000000
 42
0.000000
  0
VERTEX
  8
0
 10
813.500000
 20
386.000000
 42
-0.005503
  0
VERTEX
  8
0
 10
807.468086
 20
386.066392
 42
-0.035177
  0
VERTEX
  8
0
 10
804.425189
 20
386.348166
 42
-0.071537
  0
VERTEX
  8
0
 10
802.496981
 20
386.956253
 42
-0.084469
  0
VERTEX
  8
0
 10
800.938516
 20
388.061484
 42
-0.044283
  0
VERTEX
  8
0
 10
800.173805
 20
388.975132
 42
-0.043651
  0
VERTEX
  8
0
 10
799.577761
 20
390.013408
 42
-0.047165
  0
VERTEX
  8
0
 10
799.223180
 20
391.016975
 42
-0.109164
  0
VERTEX
  8
0
 10
799.201006
 20
391.811484
 42
-0.254461
  0
VERTEX
  8
0
 10
799.960052
 20
392.735090
 42
-0.062667
  0
VERTEX
  8
0
 10
801.925310
 20
393.256567
 42
-0.025491
  0
VERTEX
  8
0
 10
805.653933
 20
393.567620
 42
-0.003194
  0
VERTEX
  8
0
 10
813.762489
 20
393.777457
 42
0.000000
  0
VERTEX
  8
0
 10
828.000000
 20
394.054913
 42
0.000000
  0
VERTEX
  8
0
 10
828.000000
 20
399.059575
 42
0.041166
  0
VERTEX
  8
0
 10
827.635775
 20
403.475952
 42
0.055693
  0
VERTEX
  8
0
 10
826.545756
 20
407.326834
 42
0.063521
  0
VERTEX
  8
0
 10
824.797236
 20
410.423751
 42
0.087699
  0
VERTEX
  8
0
 10
822.476919
 20
412.607080
 42
0.109104
  0
VERTEX
  8
0
 10
818.752519
 20
414.020411
 42
0.023560
  0
VERTEX
  8
0
 10
811.852684
 20
414.700383
 42
0.025052
  0
VERTEX
  8
0
 10
804.789860
 20
414.707641
 42
0.075956
  0
SEQEND
  0
POLYLINE
  8
0
 66
1
 70
1
  0
VERTEX
  8
0
 10
819.000000
 20
406.000000
 42
-0.043841
  0
VERTEX
  8
0
 10
819.765398
 20
405.087166
 42
-0.036641
  0
VERTEX
  8
0
 10
820.412500
 20
404.000000
 42
-0.038133
  0
VERTEX
  8
0
 10
820.857247
 20
402.910044
 42
-0.077955
  0
VERTEX
  8
0
 10
821.000000
 20
402.000000
 42
-0.200111
  0
VERTEX
  8
0
 10
820.543078
 20
400.904045
 42
-0.151374
  0
VERTEX
  8
0
 10
819.375000
 20
400.295455
 42
-0.041619
  0
VERTEX
  8
0
 10
816.800382
 20
400.045807
 42
-0.003368
  0
VERTEX
  8
0
 10
810.000000
 20
400.000000
 42
-0.003368
  0
VERTEX
  8
0
 10
803.199618
 20
400.045807
 42
-0.041619
  0
VERTEX
  8
0
 10
800.625000
 20
400.295455
 42
-0.151374
  0
VERTEX
  8
0
 10
799.456922
 20
400.904045
 42
-0.200111
  0
VERTEX
  8
0
 10
799.000000
 20
402.000000
 42
-0.132394
  0
VERTEX
  8
0
 10
799.715407
 20
404.654457
 42
-0.137083
  0
VERTEX
  8
0
 10
801.661426
 20
406.548313
 42
-0.090792
  0
VERTEX
  8
0
 10
805.031826
 20
407.658719
 42
-0.034306
  0
VERTEX
  8
0
 10
810.000000
 20
408.000000
 42
-0.011523
  0
VERTEX
  8
0
 10
813.709735
 20
407.914490
 42
-0.043171
  0
VERTEX
  8
0
 10
816.017857
 20
407.607143
 42
-0.068065
  0
VERTEX
  8
0
 10
817.644583
 20
407.004865
 42
-0.073855
  0
SEQEND
  0
POLYLINE
  8
0
 66
1
 70
1
  0
VERTEX
  8
0
 10
835.000000
 20
411.500000
 42
0.000000
  0
VERTEX
  8
0
 10
835.000000
 20
408.000000
 42
0.000000
  0
VERTEX
  8
0
 10
846.083333
 20
408.000000
 42
-0.006956
  0
VERTEX
  8
0
 10
854.060664
 20
407.889018
 42
-0.135431
  0
VERTEX
  8
0
 10
856.396511
 20
407.174006
 42
-0.505922
  0
VERTEX
  8
0
 10
856.481160
 20
405.926966
 42
-0.035254
  0
VERTEX
  8
0
 10
853.161905
 20
403.500000
 42
0.006526
  0
VERTEX
  8
0
 10
841.219987
 20
395.779418
 42
0.046825
  0
VERTEX
  8
0
 10
835.889172
 20
391.463732
 42
0.113345
  0
VERTEX
  8
0
 10
833.659303
 20
387.991994
 42
0.148864
  0
VERTEX
  8
0
 10
833.473355
 20
384.250138
 42
0.111754
  0
VERTEX
  8
0
 10
834.886060
 20
381.458599
 42
0.149651
  0
VERTEX
  8
0
 10
837.241906
 20
379.906266
 42
0.063089
  0
VERTEX
  8
0
 10
841.603190
 20
379.204600
 42
0.007799
  0
VERTEX
  8
0
 10
851.250000
 20
379.031803
 42
0.000000
  0
VERTEX
  8
0
 10
865.000000
 20
379.000000
 42
0.000000
  0
VERTEX
  8
0
 10
865.000000
 20
382.500000
 42
0.000000
  0
VERTEX
  8
0
 10
865.000000
 20
386.000000
 42
0.000000
  0
VERTEX
  8
0
 10
853.416667
 20
386.000000
 42
-0.006410
  0
VERTEX
  8
0
 10
844.751458
 20
386.111091
 42
-0.159735
  0
VERTEX
  8
0
 10
842.533702
 20
386.901670
 42
-0.511916
  0
VERTEX
  8
0
 10
842.578504
 20
388.192273
 42
-0.022595
  0
VERTEX
  8
0
 10
847.073459
 20
390.915141
 42
0.012488
  0
VERTEX
  8
0
 10
854.148801
 20
395.008013
 42
0.019189
  0
VERTEX
  8
0
 10
860.037073
 20
398.931694
 42
0.020373
  0
VERTEX
  8
0
 10
864.473917
 20
402.424482
 42
0.096776
  0
VERTEX
  8
0
 10
866.471416
 20
404.944725
 42
0.024186
  0
VERTEX
  8
0
 10
867.298727
 20
406.753950
 42
0.091407
  0
VERTEX
  8
0
 10
867.542925
 20
407.969752
 42
0.095664
  0
VERTEX
  8
0
 10
867.332087
 20
409.163324
 42
0.027923
  0
VERTEX
  8
0
 10
866.565728
 20
410.872896
 42
0.107230
  0
VERTEX
  8
0
 10
864.716856
 20
413.108969
 42
0.113237
  0
VERTEX
  8
0
 10
862.141912
 20
414.323549
 42
0.047803
  0
VERTEX
  8
0
 10
857.672205
 20
414.861136
 42
0.005774
  0
VERTEX
  8
0
 10
847.750000
 20
414.986345
 42
0.000000
  0
VERTEX
  8
0
 10
835.000000
 20
415.000000
 42
0.000000
  0
SEQEND
  0
POLYLINE
  8
0
 66
1
 70
1
  0
VERTEX
  8
0
 10
307.000000
 20
342.049221
 42
0.001990
  0
VERTEX
  8
0
 10
307.069240
 20
324.649642
 42
0.003842
  0
VERTEX
  8
0
 10
307.287060
 20
310.725692
 42
0.002969
  0
VERTEX
  8
0
 10
307.604760
 20
299.872246
 42
0.044044
  0
VERTEX
  8
0
 10
308.072004
 20
296.099861
 42
0.054756
  0
VERTEX
  8
0
 10
309.765498
 20
291.000921
 42
0.061346
  0
VERTEX
  8
0
 10
312.479672
 20
286.599770
 42
0.061154
  0
VERTEX
  8
0
 10
316.188887
 20
282.977821
 42
0.053875
  0
VERTEX
  8
0
 10
320.819347
 20
280.178879
 42
0.027402
  0
VERTEX
  8
0
 10
324.423288
 20
278.734154
 42
0.041254
  0
VERTEX
  8
0
 10
327.706186
 20
277.916818
 42
0.027341
  0
VERTEX
  8
0
 10
331.941444
 20
277.462440
 42
0.005874
  0
VERTEX
  8
0
 10
339.321454
 20
277.163689
 42
0.000000
  0
VERTEX
  8
0
 10
352.142907
 20
276.795475
 42
0.000000
  0
VERTEX
  8
0
 10
348.659388
 20
281.359134
 42
-0.019431
  0
VERTEX
  8
0
 10
347.278547
 20
283.321777
 42
-0.017758
  0
VERTEX
  8
0
 10
346.009772
 20
285.444462
 42
-0.018089
  0
VERTEX
  8
0
 10
345.013067
 20
287.420990
 42
-0.053722
  0
VERTEX
  8
0
 10
344.531169
 20
288.858089
 42
0.064658
  0
VERTEX
  8
0
 10
343.901577
 20
290.608140
 42
0.183834
  0
VERTEX
  8
0
 10
342.954201
 20
291.460601
 42
0.075603
  0
VERTEX
  8
0
 10
341.145406
 20
291.861635
 42
0.005471
  0
VERTEX
  8
0
 10
336.019598
 20
292.150639
 42
-0.034339
  0
VERTEX
  8
0
 10
329.843156
 20
292.858028
 42
-0.110381
  0
VERTEX
  8
0
 10
326.058131
 20
294.469736
 42
-0.129447
  0
VERTEX
  8
0
 10
323.660268
 20
297.369712
 42
-0.055602
  0
VERTEX
  8
0
 10
322.056956
 20
302.170028
 42
-0.043702
  0
VERTEX
  8
0
 10
321.606391
 20
305.787538
 42
-0.002980
  0
VERTEX
  8
0
 10
321.289429
 20
316.141030
 42
-0.003939
  0
VERTEX
  8
0
 10
321.070418
 20
329.202584
 42
-0.002222
  0
VERTEX
  8
0
 10
321.000000
 20
345.049221
 42
0.000000
  0
VERTEX
  8
0
 10
321.000000
 20
383.000000
 42
0.000000
  0
VERTEX
  8
0
 10
314.000000
 20
383.000000
 42
0.000000
  0
VERTEX
  8
0
 10
307.000000
 20
383.000000
 42
0.000000
  0
SEQEND
  0
POLYLINE
  8
0
 66
1
 70
1
  0
VERTEX
  8
0
 10
462.000000
 20
371.059017
 42
0.088797
  0
VERTEX
  8
0
 10
462.072509
 20
370.653950
 42
0.053277
  0
VERTEX
  8
0
 10
462.290385
 20
370.214980
 42
0.051183
  0
VERTEX
  8
0
 10
462.610411
 20
369.810572
 42
0.061454
  0
VERTEX
  8
0
 10
462.988546
 20
369.507079
 42
0.114400
  0
VERTEX
  8
0
 10
463.325929
 20
369.393111
 42
0.329480
  0
VERTEX
  8
0
 10
463.525685
 20
369.512472
 42
0.155351
  0
VERTEX
  8
0
 10
463.556862
 20
369.868281
 42
0.036408
  0
VERTEX
  8
0
 10
463.381557
 20
370.448062
 42
0.029964
  0
VERTEX
  8
0
 10
462.894727
 20
371.519970
 42
0.168622
  0
VERTEX
  8
0
 10
462.441482
 20
371.942608
 42
0.444011
  0
VERTEX
  8
0
 10
462.117673
 20
371.798253
 42
0.079093
  0
SEQEND
  0
POLYLINE
  8
0
 66
1
 70
1
  0
VERTEX
  8
0
 10
376.000000
 20
351.995314
 42
0.086597
  0
VERTEX
  8
0
 10
364.194108
 20
348.209793
 42
0.142200
  0
VERTEX
  8
0
 10
356.683458
 20
340.991420
 42
0.105552
  0
VERTEX
  8
0
 10
352.858542
 20
329.148987
 42
0.035038
  0
VERTEX
  8
0
 10
352.270975
 20
310.813179
 42
0.011354
  0
VERTEX
  8
0
 10
352.868655
 20
300.982298
 42
0.042496
  0
VERTEX
  8
0
 10
353.904748
 20
294.886900
 42
0.062596
  0
VERTEX
  8
0
 10
355.706349
 20
290.354459
 42
0.051188
  0
VERTEX
  8
0
 10
358.678118
 20
286.062943
 42
0.057131
  0
VERTEX
  8
0
 10
363.369278
 20
281.703939
 42
0.082032
  0
VERTEX
  8
0
 10
368.415052
 20
279.135285
 42
0.056249
  0
VERTEX
  8
0
 10
375.348474
 20
277.767305
 42
0.014515
  0
VERTEX
  8
0
 10
386.750000
 20
277.157957
 42
0.000000
  0
VERTEX
  8
0
 10
402.000000
 20
276.786296
 42
0.000000
  0
VERTEX
  8
0
 10
402.000000
 20
284.393148
 42
0.000000
  0
VERTEX
  8
0
 10
402.000000
 20
292.000000
 42
0.000000
  0
VERTEX
  8
0
 10
389.250000
 20
292.006161
 42
-0.006378
  0
VERTEX
  8
0
 10
383.220715
 20
292.085981
 42
-0.016324
  0
VERTEX
  8
0
 10
378.862582
 20
292.341826
 42
-0.021401
  0
VERTEX
  8
0
 10
375.718899
 20
292.765867
 42
-0.076143
  0
VERTEX
  8
0
 10
373.801188
 20
293.420301
 42
0.019168
  0
VERTEX
  8
0
 10
372.273932
 20
294.144024
 42
0.101796
  0
VERTEX
  8
0
 10
371.372791
 20
294.327916
 42
0.155750
  0
VERTEX
  8
0
 10
370.668717
 20
294.101909
 42
0.064702
  0
VERTEX
  8
0
 10
369.928743
 20
293.414140
 42
-0.045086
  0
VERTEX
  8
0
 10
369.396291
 20
292.878952
 42
-0.043053
  0
VERTEX
  8
0
 10
368.768646
 20
292.438595
 42
-0.046173
  0
VERTEX
  8
0
 10
368.143813
 20
292.149406
 42
-0.103136
  0
VERTEX
  8
0
 10
367.627555
 20
292.078947
 42
-0.039774
  0
VERTEX
  8
0
 10
367.217637
 20
292.140652
 42
-0.410542
  0
VERTEX
  8
0
 10
367.134931
 20
292.271765
 42
-0.224869
  0
VERTEX
  8
0
 10
367.266651
 20
292.441925
 42
-0.021615
  0
VERTEX
  8
0
 10
367.756231
 20
292.664358
 42
0.093730
  0
VERTEX
  8
0
 10
368.185107
 20
292.939340
 42
0.113580
  0
VERTEX
  8
0
 10
368.449351
 20
293.336095
 42
0.119157
  0
VERTEX
  8
0
 10
368.506396
 20
293.793168
 42
0.110583
  0
VERTEX
  8
0
 10
368.351722
 20
294.239919
 42
-0.038736
  0
VERTEX
  8
0
 10
368.146880
 20
294.637119
 42
-0.349636
  0
VERTEX
  8
0
 10
368.196262
 20
294.812819
 42
-0.270968
  0
VERTEX
  8
0
 10
368.405017
 20
294.832684
 42
-0.029814
  0
VERTEX
  8
0
 10
368.845492
 20
294.595492
 42
0.215445
  0
VERTEX
  8
0
 10
369.589029
 20
294.498909
 42
0.350413
  0
VERTEX
  8
0
 10
369.930318
 20
294.996187
 42
0.069406
  0
VERTEX
  8
0
 10
369.601888
 20
296.528108
 42
0.011499
  0
VERTEX
  8
0
 10
368.500000
 20
299.345757
 42
-0.083066
  0
VERTEX
  8
0
 10
367.183737
 20
304.966650
 42
-0.018128
  0
VERTEX
  8
0
 10
366.904080
 20
314.942398
 42
-0.017271
  0
VERTEX
  8
0
 10
367.329155
 20
324.876470
 42
-0.098881
  0
VERTEX
  8
0
 10
368.751554
 20
329.928915
 42
-0.063877
  0
VERTEX
  8
0
 10
371.560178
 20
334.041973
 42
-0.125437
  0
VERTEX
  8
0
 10
374.821476
 20
336.247006
 42
-0.074093
  0
VERTEX
  8
0
 10
379.874078
 20
337.255627
 42
-0.012280
  0
VERTEX
  8
0
 10
389.822395
 20
337.500000
 42
-0.032992
  0
VERTEX
  8
0
 10
404.124902
 20
336.555238
 42
-0.220239
  0
VERTEX
  8
0
 10
409.995051
 20
332.830018
 42
-0.133810
  0
VERTEX
  8
0
 10
412.537714
 20
324.773939
 42
-0.009922
  0
VERTEX
  8
0
 10
413.000000
 20
301.479764
 42
0.000000
  0
VERTEX
  8
0
 10
413.000000
 20
277.000000
 42
0.000000
  0
VERTEX
  8
0
 10
420.570558
 20
277.000000
 42
0.000000
  0
VERTEX
  8
0
 10
428.141116
 20
277.000000
 42
0.000000
  0
VERTEX
  8
0
 10
427.800303
 20
304.750000
 42
0.004434
  0
VERTEX
  8
0
 10
427.382838
 20
324.486810
 42
0.034897
  0
VERTEX
  8
0
 10
426.470520
 20
333.599609
 42
0.080640
  0
VERTEX
  8
0
 10
424.616916
 20
339.002748
 42
0.103585
  0
VERTEX
  8
0
 10
421.249071
 20
343.018721
 42
-0.013944
  0
VERTEX
  8
0
 10
420.334722
 20
343.780159
 42
-0.031330
  0
VERTEX
  8
0
 10
419.696281
 20
344.417999
 42
-0.061949
  0
VERTEX
  8
0
 10
419.405014
 20
344.844210
 42
-0.561509
  0
VERTEX
  8
0
 10
419.500000
 20
345.000000
 42
0.704391
  0
VERTEX
  8
0
 10
419.687902
 20
345.525398
 42
0.027932
  0
VERTEX
  8
0
 10
417.311450
 20
347.262020
 42
0.022428
  0
VERTEX
  8
0
 10
413.941787
 20
349.238073
 42
0.033226
  0
VERTEX
  8
0
 10
410.815059
 20
350.631019
 42
0.067367
  0
VERTEX
  8
0
 10
405.493168
 20
351.810732
 42
0.011112
  0
VERTEX
  8
0
 10
394.969055
 20
352.457629
 42
0.012979
  0
VERTEX
  8
0
 10
384.056515
 20
352.601797
 42
0.031205
  0
SEQEND
  0
POLYLINE
  8
0
 66
1
 70
1
  0
VERTEX
  8
0
 10
271.993526
 20
351.065659
 42
0.061582
  0
VERTEX
  8
0
 10
266.260343
 20
348.517053
 42
0.059947
  0
VERTEX
  8
0
 10
261.262745
 20
344.629898
 42
0.059658
  0
VERTEX
  8
0
 10
257.309783
 20
339.648677
 42
0.059883
  0
VERTEX
  8
0
 10
254.650596
 20
333.881104
 42
0.045913
  0
VERTEX
  8
0
 10
253.796449
 20
330.072689
 42
0.018918
  0
VERTEX
  8
0
 10
253.315302
 20
324.801946
 42
0.010964
  0
VERTEX
  8
0
 10
253.065045
 20
316.802612
 42
0.002337
  0
VERTEX
  8
0
 10
253.000000
 20
302.885165
 42
0.000000
  0
VERTEX
  8
0
 10
253.000000
 20
277.000000
 42
0.000000
  0
VERTEX
  8
0
 10
259.921888
 20
277.000000
 42
0.000000
  0
VERTEX
  8
0
 10
266.843775
 20
277.000000
 42
0.000000
  0
VERTEX
  8
0
 10
267.171888
 20
301.250000
 42
-0.002000
  0
VERTEX
  8
0
 10
267.421848
 20
315.508101
 42
-0.015195
  0
VERTEX
  8
0
 10
267.770552
 20
322.218554
 42
-0.033124
  0
VERTEX
  8
0
 10
268.385308
 20
326.326990
 42
-0.063006
  0
VERTEX
  8
0
 10
269.500000
 20
329.472164
 42
-0.072834
  0
VERTEX
  8
0
 10
272.115984
 20
333.200292
 42
-0.093366
  0
VERTEX
  8
0
 10
275.503061
 20
335.656054
 42
-0.071541
  0
VERTEX
  8
0
 10
280.251507
 20
337.116096
 42
-0.026929
  0
VERTEX
  8
0
 10
287.186439
 20
337.823257
 42
0.000000
  0
VERTEX
  8
0
 10
296.000000
 20
338.244639
 42
0.000000
  0
VERTEX
  8
0
 10
296.000000
 20
345.122319
 42
0.000000
  0
VERTEX
  8
0
 10
296.000000
 20
352.000000
 42
0.000000
  0
VERTEX
  8
0
 10
285.250000
 20
351.914047
 42
0.006320
  0
VERTEX
  8
0
 10
280.950309
 20
351.825306
 42
0.007659
  0
VERTEX
  8
0
 10
276.921536
 20
351.629378
 42
0.006606
  0
VERTEX
  8
0
 10
273.543992
 20
351.368372
 42
0.051284
  0
SEQEND
  0
POLYLINE
  8
0
 66
1
 70
1
  0
VERTEX
  8
0
 10
590.169324
 20
346.104648
 42
0.091522
  0
VERTEX
  8
0
 10
589.698630
 20
345.678208
 42
0.024856
  0
VERTEX
  8
0
 10
589.127000
 20
344.847034
 42
0.024280
  0
VERTEX
  8
0
 10
588.561376
 20
343.821916
 42
0.023085
  0
VERTEX
  8
0
 10
588.087312
 20
342.729648
 42
0.020104
  0
VERTEX
  8
0
 10
587.516327
 20
341.024471
 42
0.249527
  0
VERTEX
  8
0
 10
587.651601
 20
340.377600
 42
0.207823
  0
VERTEX
  8
0
 10
588.287177
 20
340.058126
 42
0.013990
  0
VERTEX
  8
0
 10
590.364236
 20
340.000000
 42
0.036974
  0
VERTEX
  8
0
 10
592.061778
 20
340.125700
 42
0.092662
  0
VERTEX
  8
0
 10
593.231027
 20
340.529628
 42
0.103361
  0
VERTEX
  8
0
 10
594.099101
 20
341.296244
 42
0.053518
  0
VERTEX
  8
0
 10
594.839485
 20
342.547053
 42
0.011172
  0
VERTEX
  8
0
 10
595.283785
 20
343.582916
 42
0.012913
  0
VERTEX
  8
0
 10
595.659099
 20
344.589119
 42
0.012012
  0
VERTEX
  8
0
 10
595.933164
 20
345.453111
 42
0.070905
  0
VERTEX
  8
0
 10
596.000000
 20
345.922053
 42
0.358327
  0
VERTEX
  8
0
 10
595.510207
 20
346.517744
 42
0.040821
  0
VERTEX
  8
0
 10
593.649141
 20
346.728762
 42
0.042636
  0
VERTEX
  8
0
 10
591.590862
 20
346.617684
 42
0.103982
  0
SEQEND
  0
POLYLINE
  8
0
 66
1
 70
1
  0
VERTEX
  8
0
 10
550.194889
 20
324.416071
 42
0.000000
  0
VERTEX
  8
0
 10
550.500000
 20
302.832141
 42
0.000000
  0
VERTEX
  8
0
 10
553.765777
 20
299.916071
 42
0.033387
  0
VERTEX
  8
0
 10
555.805257
 20
298.326218
 42
0.076010
  0
VERTEX
  8
0
 10
557.564617
 20
297.490064
 42
0.058998
  0
VERTEX
  8
0
 10
559.758092
 20
297.104336
 42
0.014054
  0
VERTEX
  8
0
 10
563.469266
 20
297.000000
 42
0.000000
  0
VERTEX
  8
0
 10
569.906979
 20
297.000000
 42
0.000000
  0
VERTEX
  8
0
 10
568.203490
 20
299.993677
 42
0.039280
  0
VERTEX
  8
0
 10
567.268240
 20
301.372960
 42
0.073102
  0
VERTEX
  8
0
 10
566.282300
 20
302.292338
 42
0.083470
  0
VERTEX
  8
0
 10
565.169830
 20
302.813326
 42
0.067360
  0
VERTEX
  8
0
 10
563.860784
 20
302.993677
 42
-0.057903
  0
VERTEX
  8
0
 10
562.678750
 20
303.133894
 42
-0.033062
  0
VERTEX
  8
0
 10
561.303357
 20
303.559124
 42
-0.032590
  0
VERTEX
  8
0
 10
559.957885
 20
304.177986
 42
-0.046008
  0
VERTEX
  8
0
 10
558.860784
 20
304.909722
 42
-0.114882
  0
VERTEX
  8
0
 10
557.479071
 20
306.683183
 42
-0.077541
  0
VERTEX
  8
0
 10
556.771487
 20
309.159382
 42
-0.025146
  0
VERTEX
  8
0
 10
556.436762
 20
313.718891
 42
-0.001801
  0
VERTEX
  8
0
 10
556.190574
 20
326.409722
 42
0.000000
  0
VERTEX
  8
0
 10
555.881148
 20
346.000000
 42
0.000000
  0
VERTEX
  8
0
 10
552.885463
 20
346.000000
 42
0.000000
  0
VERTEX
  8
0
 10
549.889777
 20
346.000000
 42
0.000000
  0
SEQEND
  0
POLYLINE
  8
0
 66
1
 70
1
  0
VERTEX
  8
0
 10
577.292951
 20
330.373129
 42
0.113046
  0
VERTEX
  8
0
 10
574.311935
 20
327.946518
 42
0.084517
  0
VERTEX
  8
0
 10
572.297551
 20
324.204204
 42
0.062861
  0
VERTEX
  8
0
 10
571.243554
 20
318.994066
 42
0.029866
  0
VERTEX
  8
0
 10
571.145278
 20
312.137648
 42
0.030302
  0
VERTEX
  8
0
 10
571.852014
 20
305.493206
 42
0.105201
  0
VERTEX
  8
0
 10
573.430604
 20
301.496708
 42
0.129308
  0
VERTEX
  8
0
 10
576.292303
 20
298.947068
 42
0.056776
  0
VERTEX
  8
0
 10
581.083752
 20
297.158995
 42
0.047766
  0
VERTEX
  8
0
 10
586.385417
 20
296.367027
 42
0.035593
  0
VERTEX
  8
0
 10
592.302343
 20
296.475499
 42
0.036482
  0
VERTEX
  8
0
 10
597.810551
 20
297.378083
 42
0.077915
  0
VERTEX
  8
0
 10
601.786917
 20
299.016611
 42
0.111001
  0
VERTEX
  8
0
 10
604.314342
 20
301.455030
 42
0.076123
  0
VERTEX
  8
0
 10
605.982747
 20
305.090301
 42
0.056177
  0
VERTEX
  8
0
 10
606.820088
 20
310.085574
 42
0.026081
  0
VERTEX
  8
0
 10
606.831255
 20
316.670538
 42
0.032807
  0
VERTEX
  8
0
 10
606.224187
 20
321.878308
 42
0.069119
  0
VERTEX
  8
0
 10
604.947869
 20
325.734169
 42
0.084767
  0
VERTEX
  8
0
 10
602.880994
 20
328.588057
 42
0.075176
  0
VERTEX
  8
0
 10
599.903601
 20
330.735258
 42
0.103332
  0
VERTEX
  8
0
 10
596.050110
 20
331.796717
 42
0.019720
  0
VERTEX
  8
0
 10
588.745847
 20
331.967816
 42
0.020396
  0
VERTEX
  8
0
 10
581.424394
 20
331.551498
 42
0.090372
  0
SEQEND
  0
POLYLINE
  8
0
 66
1
 70
1
  0
VERTEX
  8
0
 10
598.443296
 20
322.777494
 42
-0.075778
  0
VERTEX
  8
0
 10
599.126012
 20
321.398640
 42
-0.033974
  0
VERTEX
  8
0
 10
599.609088
 20
319.429387
 42
-0.027665
  0
VERTEX
  8
0
 10
599.904773
 20
316.920664
 42
-0.015503
  0
VERTEX
  8
0
 10
600.000000
 20
313.850074
 42
-0.010613
  0
VERTEX
  8
0
 10
599.916622
 20
309.922485
 42
-0.062374
  0
VERTEX
  8
0
 10
599.574478
 20
307.893269
 42
-0.101375
  0
VERTEX
  8
0
 10
598.813570
 20
306.479282
 42
-0.052181
  0
VERTEX
  8
0
 10
597.365141
 20
305.072580
 42
-0.125907
  0
VERTEX
  8
0
 10
593.254765
 20
303.256584
 42
-0.059258
  0
VERTEX
  8
0
 10
587.414649
 20
302.981037
 42
-0.060093
  0
VERTEX
  8
0
 10
581.871749
 20
304.054361
 42
-0.169278
  0
VERTEX
  8
0
 10
578.765313
 20
306.399704
 42
-0.114044
  0
VERTEX
  8
0
 10
578.475803
 20
307.165081
 42
-0.010323
  0
VERTEX
  8
0
 10
578.241942
 20
309.209908
 42
-0.012971
  0
VERTEX
  8
0
 10
578.074803
 20
311.690154
 42
-0.009784
  0
VERTEX
  8
0
 10
578.015313
 20
314.421259
 42
-0.029949
  0
VERTEX
  8
0
 10
578.365595
 20
320.488752
 42
-0.174521
  0
VERTEX
  8
0
 10
579.772910
 20
323.307176
 42
-0.165670
  0
VERTEX
  8
0
 10
582.698781
 20
324.662405
 42
-0.026358
  0
VERTEX
  8
0
 10
589.098284
 20
325.000000
 42
-0.007889
  0
VERTEX
  8
0
 10
593.592012
 20
324.929089
 42
-0.050526
  0
VERTEX
  8
0
 10
595.845488
 20
324.628690
 42
-0.099446
  0
VERTEX
  8
0
 10
597.271524
 20
323.971692
 42
-0.082641
  0
SEQEND
  0
POLYLINE
  8
0
 66
1
 70
1
  0
VERTEX
  8
0
 10
620.380646
 20
330.138853
 42
0.115107
  0
VERTEX
  8
0
 10
617.505789
 20
327.248849
 42
0.091656
  0
VERTEX
  8
0
 10
615.907613
 20
323.137707
 42
0.041119
  0
VERTEX
  8
0
 10
615.168942
 20
316.180104
 42
0.005895
  0
VERTEX
  8
0
 10
615.000000
 20
301.850777
 42
0.000000
  0
VERTEX
  8
0
 10
615.000000
 20
282.000000
 42
0.000000
  0
VERTEX
  8
0
 10
618.500000
 20
282.000000
 42
0.000000
  0
VERTEX
  8
0
 10
622.000000
 20
282.000000
 42
0.000000
  0
VERTEX
  8
0
 10
622.000000
 20
289.500000
 42
0.000000
  0
VERTEX
  8
0
 10
622.000000
 20
297.000000
 42
0.000000
  0
VERTEX
  8
0
 10
632.095708
 20
297.000000
 42
0.030574
  0
VERTEX
  8
0
 10
641.600264
 20
297.581737
 42
0.139736
  0
VERTEX
  8
0
 10
646.645929
 20
299.714611
 42
0.161336
  0
VERTEX
  8
0
 10
649.411377
 20
303.998149
 42
0.044685
  0
VERTEX
  8
0
 10
650.735978
 20
312.000000
 42
0.031421
  0
VERTEX
  8
0
 10
650.802411
 20
317.574494
 42
0.049061
  0
VERTEX
  8
0
 10
650.090623
 20
322.317888
 42
0.058284
  0
VERTEX
  8
0
 10
648.626249
 20
326.168264
 42
0.084263
  0
VERTEX
  8
0
 10
646.433209
 20
329.065130
 42
0.061123
  0
VERTEX
  8
0
 10
644.602003
 20
330.407548
 42
0.075083
  0
VERTEX
  8
0
 10
642.620603
 20
331.154720
 42
0.039424
  0
VERTEX
  8
0
 10
639.645714
 20
331.549437
 42
0.006035
  0
VERTEX
  8
0
 10
633.671973
 20
331.794704
 42
0.006694
  0
VERTEX
  8
0
 10
628.011634
 20
331.882883
 42
0.031544
  0
VERTEX
  8
0
 10
624.769452
 20
331.685267
 42
0.053435
  0
VERTEX
  8
0
 10
622.477218
 20
331.146835
 42
0.055391
  0
SEQEND
  0
POLYLINE
  8
0
 66
1
 70
1
  0
VERTEX
  8
0
 10
642.443296
 20
322.777494
 42
-0.073995
  0
VERTEX
  8
0
 10
643.110368
 20
321.442164
 42
-0.033037
  0
VERTEX
  8
0
 10
643.596790
 20
319.533378
 42
-0.027983
  0
VERTEX
  8
0
 10
643.900647
 20
317.163509
 42
-0.017894
  0
VERTEX
  8
0
 10
644.000000
 20
314.388278
 42
-0.038459
  0
VERTEX
  8
0
 10
643.595613
 20
309.138706
 42
-0.128857
  0
VERTEX
  8
0
 10
642.231262
 20
306.000146
 42
-0.147309
  0
VERTEX
  8
0
 10
639.627956
 20
304.173209
 42
-0.055961
  0
VERTEX
  8
0
 10
635.240660
 20
303.249103
 42
-0.039158
  0
VERTEX
  8
0
 10
628.413820
 20
303.129506
 42
-0.159374
  0
VERTEX
  8
0
 10
624.602559
 20
304.637867
 42
-0.173125
  0
VERTEX
  8
0
 10
622.600021
 20
308.016757
 42
-0.048076
  0
VERTEX
  8
0
 10
622.000000
 20
314.242688
 42
-0.028744
  0
VERTEX
  8
0
 10
622.356805
 20
320.444064
 42
-0.173215
  0
VERTEX
  8
0
 10
623.761114
 20
323.292992
 42
-0.167516
  0
VERTEX
  8
0
 10
626.680848
 20
324.659881
 42
-0.026481
  0
VERTEX
  8
0
 10
633.098284
 20
325.000000
 42
-0.007889
  0
VERTEX
  8
0
 10
637.592012
 20
324.929089
 42
-0.050526
  0
VERTEX
  8
0
 10
639.845488
 20
324.628690
 42
-0.099446
  0
VERTEX
  8
0
 10
641.271524
 20
323.971692
 42
-0.082641
  0
SEQEND
  0
POLYLINE
  8
0
 66
1
 70
1
  0
VERTEX
  8
0
 10
665.096399
 20
330.735258
 42
0.074265
  0
VERTEX
  8
0
 10
661.914847
 20
328.449579
 42
0.100110
  0
VERTEX
  8
0
 10
659.918206
 20
325.531116
 42
0.074244
  0
VERTEX
  8
0
 10
658.854197
 20
321.402560
 42
0.025337
  0
VERTEX
  8
0
 10
658.523401
 20
315.208012
 42
0.036074
  0
VERTEX
  8
0
 10
659.225977
 20
305.105058
 42
0.173947
  0
VERTEX
  8
0
 10
661.874420
 20
300.091482
 42
0.157996
  0
VERTEX
  8
0
 10
667.273438
 20
297.635263
 42
0.028396
  0
VERTEX
  8
0
 10
678.450340
 20
297.000000
 42
0.000000
  0
VERTEX
  8
0
 10
690.000000
 20
297.000000
 42
0.000000
  0
VERTEX
  8
0
 10
690.000000
 20
300.000000
 42
0.000000
  0
VERTEX
  8
0
 10
690.000000
 20
303.000000
 42
0.000000
  0
VERTEX
  8
0
 10
679.954545
 20
303.000000
 42
-0.005514
  0
VERTEX
  8
0
 10
673.874892
 20
303.067050
 42
-0.042987
  0
VERTEX
  8
0
 10
671.060067
 20
303.372172
 42
-0.086807
  0
VERTEX
  8
0
 10
669.211589
 20
304.082918
 42
-0.061362
  0
VERTEX
  8
0
 10
667.454545
 20
305.454545
 42
-0.064819
  0
VERTEX
  8
0
 10
665.106858
 20
308.504991
 42
-0.442330
  0
VERTEX
  8
0
 10
665.615214
 20
310.111695
 42
-0.102430
  0
VERTEX
  8
0
 10
668.926427
 20
310.877578
 42
-0.005789
  0
VERTEX
  8
0
 10
679.500000
 20
311.000000
 42
0.000000
  0
VERTEX
  8
0
 10
694.000000
 20
311.000000
 42
0.000000
  0
VERTEX
  8
0
 10
694.000000
 20
316.532119
 42
0.037951
  0
VERTEX
  8
0
 10
693.629037
 20
321.412511
 42
0.062057
  0
VERTEX
  8
0
 10
692.501306
 20
325.398994
 42
0.075241
  0
VERTEX
  8
0
 10
690.650304
 20
328.419138
 42
0.098695
  0
VERTEX
  8
0
 10
688.128438
 20
330.433582
 42
0.097094
  0
VERTEX
  8
0
 10
684.096179
 20
331.609112
 42
0.019250
  0
VERTEX
  8
0
 10
676.551234
 20
331.998725
 42
0.018916
  0
VERTEX
  8
0
 10
669.008161
 20
331.812144
 42
0.103407
  0
SEQEND
  0
POLYLINE
  8
0
 66
1
 70
1
  0
VERTEX
  8
0
 10
685.171259
 20
323.345012
 42
-0.048630
  0
VERTEX
  8
0
 10
685.871076
 20
322.575575
 42
-0.039866
  0
VERTEX
  8
0
 10
686.462807
 20
321.634205
 42
-0.041415
  0
VERTEX
  8
0
 10
686.868347
 20
320.671529
 42
-0.079144
  0
VERTEX
  8
0
 10
687.000000
 20
319.845012
 42
-0.229158
  0
VERTEX
  8
0
 10
686.519412
 20
318.851484
 42
-0.126554
  0
VERTEX
  8
0
 10
685.259495
 20
318.291932
 42
-0.037909
  0
VERTEX
  8
0
 10
682.568628
 20
318.048013
 42
-0.003655
  0
VERTEX
  8
0
 10
676.000000
 20
318.000000
 42
-0.006812
  0
VERTEX
  8
0
 10
668.231933
 20
318.105833
 42
-0.110729
  0
VERTEX
  8
0
 10
665.716969
 20
318.742138
 42
-0.378609
  0
VERTEX
  8
0
 10
665.173477
 20
320.108550
 42
-0.066527
  0
VERTEX
  8
0
 10
666.556704
 20
322.777494
 42
-0.081698
  0
VERTEX
  8
0
 10
667.720967
 20
323.968496
 42
-0.099316
  0
VERTEX
  8
0
 10
669.133028
 20
324.625922
 42
-0.051258
  0
VERTEX
  8
0
 10
671.351714
 20
324.928009
 42
-0.008225
  0
VERTEX
  8
0
 10
675.727963
 20
325.000000
 42
-0.011022
  0
VERTEX
  8
0
 10
679.492427
 20
324.917003
 42
-0.032363
  0
VERTEX
  8
0
 10
682.068661
 20
324.635623
 42
-0.048084
  0
VERTEX
  8
0
 10
683.887919
 20
324.132936
 42
-0.092735
  0
SEQEND
  0
POLYLINE
  8
0
 66
1
 70
1
  0
VERTEX
  8
0
 10
702.186642
 20
328.750000
 42
0.000000
  0
VERTEX
  8
0
 10
702.500000
 20
325.500000
 42
0.000000
  0
VERTEX
  8
0
 10
713.321813
 20
325.215440
 42
-0.005614
  0
VERTEX
  8
0
 10
718.514397
 20
325.020539
 42
-0.023552
  0
VERTEX
  8
0
 10
721.622603
 20
324.721735
 42
-0.038777
  0
VERTEX
  8
0
 10
723.433688
 20
324.315888
 42
-0.419857
  0
VERTEX
  8
0
 10
723.744626
 20
323.715440
 42
-0.151080
  0
VERTEX
  8
0
 10
723.279730
 20
323.060212
 42
-0.010109
  0
VERTEX
  8
0
 10
721.403757
 20
321.682035
 42
-0.013831
  0
VERTEX
  8
0
 10
719.050258
 20
320.120769
 42
-0.009877
  0
VERTEX
  8
0
 10
716.336010
 20
318.500000
 42
0.018585
  0
VERTEX
  8
0
 10
707.347575
 20
312.918158
 42
0.070764
  0
VERTEX
  8
0
 10
702.457124
 20
308.504690
 42
0.132039
  0
VERTEX
  8
0
 10
700.594827
 20
304.473555
 42
0.155424
  0
VERTEX
  8
0
 10
701.171746
 20
300.324711
 42
0.000000
  0
VERTEX
  8
0
 10
702.524240
 20
297.500000
 42
0.000000
  0
VERTEX
  8
0
 10
717.262120
 20
297.223267
 42
0.000000
  0
VERTEX
  8
0
 10
732.000000
 20
296.946534
 42
0.000000
  0
VERTEX
  8
0
 10
732.000000
 20
299.973267
 42
0.000000
  0
VERTEX
  8
0
 10
732.000000
 20
303.000000
 42
0.000000
  0
VERTEX
  8
0
 10
721.059017
 20
303.000000
 42
-0.007402
  0
VERTEX
  8
0
 10
716.826997
 20
303.062652
 42
-0.011436
  0
VERTEX
  8
0
 10
713.174664
 20
303.254491
 42
-0.005909
  0
VERTEX
  8
0
 10
710.137549
 20
303.519893
 42
-0.233679
  0
VERTEX
  8
0
 10
709.582598
 20
303.866353
 42
-0.320046
  0
VERTEX
  8
0
 10
709.654701
 20
304.958635
 42
-0.056577
  0
VERTEX
  8
0
 10
711.212270
 20
306.476106
 42
-0.031392
  0
VERTEX
  8
0
 10
714.214668
 20
308.515038
 42
-0.007774
  0
VERTEX
  8
0
 10
719.384624
 20
311.463163
 42
0.020164
  0
VERTEX
  8
0
 10
725.890913
 20
315.390036
 42
0.045152
  0
VERTEX
  8
0
 10
730.399160
 20
318.988135
 42
0.063073
  0
VERTEX
  8
0
 10
733.108556
 20
322.331871
 42
0.139648
  0
VERTEX
  8
0
 10
734.000000
 20
325.461375
 42
0.111117
  0
VERTEX
  8
0
 10
733.212165
 20
328.962666
 42
0.196932
  0
VERTEX
  8
0
 10
731.059429
 20
330.925375
 42
0.078724
  0
VERTEX
  8
0
 10
726.529909
 20
331.811747
 42
0.009031
  0
VERTEX
  8
0
 10
716.107901
 20
332.000000
 42
0.000000
  0
VERTEX
  8
0
 10
701.873283
 20
332.000000
 42
0.000000
  0
SEQEND
  0
POLYLINE
  8
0
 66
1
 70
1
  0
VERTEX
  8
0
 10
639.148954
 20
243.204882
 42
0.002484
  0
VERTEX
  8
0
 10
639.406227
 20
231.430438
 42
0.016330
  0
VERTEX
  8
0
 10
639.756847
 20
225.541646
 42
0.033100
  0
VERTEX
  8
0
 10
640.326265
 20
221.974712
 42
0.089172
  0
VERTEX
  8
0
 10
641.327781
 20
219.621356
 42
0.082604
  0
VERTEX
  8
0
 10
643.395259
 20
217.379974
 42
0.056876
  0
VERTEX
  8
0
 10
646.351953
 20
215.578281
 42
0.053719
  0
VERTEX
  8
0
 10
649.836076
 20
214.399231
 42
0.054798
  0
VERTEX
  8
0
 10
653.467881
 20
214.000000
 42
0.021383
  0
VERTEX
  8
0
 10
655.620632
 20
214.092107
 42
0.175600
  0
VERTEX
  8
0
 10
656.497706
 20
214.497727
 42
0.177406
  0
VERTEX
  8
0
 10
656.906543
 20
215.368844
 42
0.021916
  0
VERTEX
  8
0
 10
657.000000
 20
217.500000
 42
0.021617
  0
VERTEX
  8
0
 10
656.908959
 20
219.604841
 42
0.169311
  0
VERTEX
  8
0
 10
656.513652
 20
220.485559
 42
0.180162
  0
VERTEX
  8
0
 10
655.669643
 20
220.900534
 42
0.025121
  0
VERTEX
  8
0
 10
653.691130
 20
221.000000
 42
-0.070948
  0
VERTEX
  8
0
 10
649.902793
 20
221.540273
 42
-0.187643
  0
VERTEX
  8
0
 10
647.767195
 20
223.178270
 42
-0.110374
  0
VERTEX
  8
0
 10
646.645369
 20
226.500227
 42
-0.017418
  0
VERTEX
  8
0
 10
646.153470
 20
233.418344
 42
0.000000
  0
VERTEX
  8
0
 10
645.806941
 20
243.000000
 42
0.000000
  0
VERTEX
  8
0
 10
651.403470
 20
243.000000
 42
0.000000
  0
VERTEX
  8
0
 10
657.000000
 20
243.000000
 42
0.000000
  0
VERTEX
  8
0
 10
657.000000
 20
246.500000
 42
0.000000
  0
VERTEX
  8
0
 10
657.000000
 20
250.000000
 42
0.000000
  0
VERTEX
  8
0
 10
651.500000
 20
250.000000
 42
0.000000
  0
VERTEX
  8
0
 10
646.000000
 20
250.000000
 42
0.000000
  0
VERTEX
  8
0
 10
646.000000
 20
257.000000
 42
0.000000
  0
VERTEX
  8
0
 10
646.000000
 20
264.000000
 42
0.000000
  0
VERTEX
  8
0
 10
642.398954
 20
264.000000
 42
0.000000
  0
VERTEX
  8
0
 10
638.797909
 20
264.000000
 42
0.000000
  0
SEQEND
  0
POLYLINE
  8
0
 66
1
 70
1
  0
VERTEX
  8
0
 10
559.123066
 20
249.056558
 42
0.043601
  0
VERTEX
  8
0
 10
557.639382
 20
248.539442
 42
0.025690
  0
VERTEX
  8
0
 10
555.967580
 20
247.682037
 42
0.025562
  0
VERTEX
  8
0
 10
554.373285
 20
246.645764
 42
0.039424
  0
VERTEX
  8
0
 10
553.123066
 20
245.579211
 42
0.054245
  0
VERTEX
  8
0
 10
551.663154
 20
243.763935
 42
0.081480
  0
VERTEX
  8
0
 10
550.861521
 20
241.900882
 42
0.044925
  0
VERTEX
  8
0
 10
550.437187
 20
239.166226
 42
0.006890
  0
VERTEX
  8
0
 10
550.159738
 20
233.662782
 42
0.039397
  0
VERTEX
  8
0
 10
550.578314
 20
223.740978
 42
0.143339
  0
VERTEX
  8
0
 10
553.041610
 20
218.005369
 42
0.164857
  0
VERTEX
  8
0
 10
557.967342
 20
214.960735
 42
0.056774
  0
VERTEX
  8
0
 10
566.401129
 20
214.000000
 42
0.000000
  0
VERTEX
  8
0
 10
573.000000
 20
214.000000
 42
0.000000
  0
VERTEX
  8
0
 10
573.000000
 20
217.500000
 42
0.000000
  0
VERTEX
  8
0
 10
573.000000
 20
221.000000
 42
0.000000
  0
VERTEX
  8
0
 10
566.654988
 20
221.000000
 42
-0.037501
  0
VERTEX
  8
0
 10
561.258009
 20
221.405359
 42
-0.180054
  0
VERTEX
  8
0
 10
558.606401
 20
222.875447
 42
-0.153160
  0
VERTEX
  8
0
 10
557.321068
 20
225.879286
 42
-0.025096
  0
VERTEX
  8
0
 10
557.000000
 20
232.272037
 42
-0.031884
  0
VERTEX
  8
0
 10
557.382330
 20
238.261562
 42
-0.166454
  0
VERTEX
  8
0
 10
558.821388
 20
241.185377
 42
-0.165811
  0
VERTEX
  8
0
 10
561.754042
 20
242.619795
 42
-0.031579
  0
VERTEX
  8
0
 10
567.767961
 20
243.000000
 42
-0.013587
  0
VERTEX
  8
0
 10
571.277369
 20
242.904616
 42
-0.054637
  0
VERTEX
  8
0
 10
573.391003
 20
242.555902
 42
-0.078486
  0
VERTEX
  8
0
 10
574.973669
 20
241.831349
 42
-0.049897
  0
VERTEX
  8
0
 10
576.545455
 20
240.545455
 42
-0.067817
  0
VERTEX
  8
0
 10
577.939835
 20
238.711127
 42
-0.086932
  0
VERTEX
  8
0
 10
578.648113
 20
236.715944
 42
-0.037977
  0
VERTEX
  8
0
 10
578.940601
 20
233.537799
 42
-0.003964
  0
VERTEX
  8
0
 10
579.000000
 20
226.045455
 42
0.000000
  0
VERTEX
  8
0
 10
579.000000
 20
214.000000
 42
0.000000
  0
VERTEX
  8
0
 10
582.615829
 20
214.000000
 42
0.000000
  0
VERTEX
  8
0
 10
586.231658
 20
214.000000
 42
0.000000
  0
VERTEX
  8
0
 10
585.782755
 20
227.250000
 42
0.010950
  0
VERTEX
  8
0
 10
585.248887
 20
236.813630
 42
0.054414
  0
VERTEX
  8
0
 10
584.252881
 20
242.095436
 42
0.100269
  0
VERTEX
  8
0
 10
582.476316
 20
245.386618
 42
0.099597
  0
VERTEX
  8
0
 10
579.555315
 20
247.736244
 42
0.082478
  0
VERTEX
  8
0
 10
575.969438
 20
248.901879
 42
0.021297
  0
VERTEX
  8
0
 10
569.902895
 20
249.554206
 42
0.022369
  0
VERTEX
  8
0
 10
563.645695
 20
249.678112
 42
0.055881
  0
SEQEND
  0
POLYLINE
  8
0
 66
1
 70
1
  0
VERTEX
  8
0
 10
594.000000
 20
236.964488
 42
0.013026
  0
VERTEX
  8
0
 10
594.256220
 20
227.131335
 42
0.060580
  0
VERTEX
  8
0
 10
595.232204
 20
221.549925
 42
0.108243
  0
VERTEX
  8
0
 10
597.190668
 20
218.046778
 42
0.100919
  0
VERTEX
  8
0
 10
600.478402
 20
215.577273
 42
0.084031
  0
VERTEX
  8
0
 10
604.663745
 20
214.394590
 42
0.025108
  0
VERTEX
  8
0
 10
611.308991
 20
214.011916
 42
0.025441
  0
VERTEX
  8
0
 10
618.005926
 20
214.303784
 42
0.075481
  0
VERTEX
  8
0
 10
622.454338
 20
215.416474
 42
0.082952
  0
VERTEX
  8
0
 10
626.148546
 20
217.739273
 42
0.129298
  0
VERTEX
  8
0
 10
628.218599
 20
220.852472
 42
0.070019
  0
VERTEX
  8
0
 10
629.197203
 20
225.945830
 42
0.011778
  0
VERTEX
  8
0
 10
629.460510
 20
235.895751
 42
0.000000
  0
VERTEX
  8
0
 10
629.500000
 20
249.500000
 42
0.000000
  0
VERTEX
  8
0
 10
626.330609
 20
249.807346
 42
0.000000
  0
VERTEX
  8
0
 10
623.161217
 20
250.114693
 42
0.000000
  0
VERTEX
  8
0
 10
622.830609
 20
236.974615
 42
-0.010747
  0
VERTEX
  8
0
 10
622.349153
 20
226.661082
 42
-0.138448
  0
VERTEX
  8
0
 10
621.063581
 20
223.064487
 42
-0.211200
  0
VERTEX
  8
0
 10
618.276308
 20
221.408539
 42
-0.029958
  0
VERTEX
  8
0
 10
611.463858
 20
221.000000
 42
-0.035999
  0
VERTEX
  8
0
 10
605.201333
 20
221.451477
 42
-0.213000
  0
VERTEX
  8
0
 10
602.489717
 20
223.165393
 42
-0.130976
  0
VERTEX
  8
0
 10
601.236518
 20
226.861013
 42
-0.010949
  0
VERTEX
  8
0
 10
600.782441
 20
237.042894
 42
0.000000
  0
VERTEX
  8
0
 10
600.500000
 20
249.500000
 42
0.000000
  0
VERTEX
  8
0
 10
597.250000
 20
249.813358
 42
0.000000
  0
VERTEX
  8
0
 10
594.000000
 20
250.126717
 42
0.000000
  0
SEQEND
  0
POLYLINE
  8
0
 66
1
 70
1
  0
VERTEX
  8
0
 10
671.123066
 20
248.997977
 42
0.045013
  0
VERTEX
  8
0
 10
669.639351
 20
248.503290
 42
0.026526
  0
VERTEX
  8
0
 10
667.967580
 20
247.664944
 42
0.026382
  0
VERTEX
  8
0
 10
666.373400
 20
246.641740
 42
0.040435
  0
VERTEX
  8
0
 10
665.123066
 20
245.579605
 42
0.055751
  0
VERTEX
  8
0
 10
663.651843
 20
243.739259
 42
0.082648
  0
VERTEX
  8
0
 10
662.853076
 20
241.839857
 42
0.043568
  0
VERTEX
  8
0
 10
662.436285
 20
239.007067
 42
0.006133
  0
VERTEX
  8
0
 10
662.160168
 20
233.103322
 42
0.038594
  0
VERTEX
  8
0
 10
662.585708
 20
223.138968
 42
0.155541
  0
VERTEX
  8
0
 10
665.084256
 20
217.668469
 42
0.165057
  0
VERTEX
  8
0
 10
670.185521
 20
214.837855
 42
0.044885
  0
VERTEX
  8
0
 10
679.500000
 20
214.000000
 42
0.043456
  0
VERTEX
  8
0
 10
688.633338
 20
214.795293
 42
0.160362
  0
VERTEX
  8
0
 10
693.672048
 20
217.494087
 42
0.152980
  0
VERTEX
  8
0
 10
696.258096
 20
222.747402
 42
0.038479
  0
VERTEX
  8
0
 10
697.000000
 20
232.373615
 42
0.006648
  0
VERTEX
  8
0
 10
696.924690
 20
238.037337
 42
0.043884
  0
VERTEX
  8
0
 10
696.601901
 20
240.849007
 42
0.077495
  0
VERTEX
  8
0
 10
695.862989
 20
242.831952
 42
0.047068
  0
VERTEX
  8
0
 10
694.435724
 20
244.894018
 42
0.112636
  0
VERTEX
  8
0
 10
690.585214
 20
247.802787
 42
0.062176
  0
VERTEX
  8
0
 10
684.920303
 20
249.545508
 42
0.054875
  0
VERTEX
  8
0
 10
678.181934
 20
249.981507
 42
0.046741
  0
SEQEND
  0
POLYLINE
  8
0
 66
1
 70
1
  0
VERTEX
  8
0
 10
688.139216
 20
241.088353
 42
-0.067275
  0
VERTEX
  8
0
 10
689.418238
 20
239.731256
 42
-0.095247
  0
VERTEX
  8
0
 10
690.110723
 20
238.227365
 42
-0.052008
  0
VERTEX
  8
0
 10
690.424843
 20
235.960248
 42
-0.008439
  0
VERTEX
  8
0
 10
690.500000
 20
231.507742
 42
-0.028457
  0
VERTEX
  8
0
 10
690.152582
 20
225.408389
 42
-0.175809
  0
VERTEX
  8
0
 10
688.775524
 20
222.641910
 42
-0.166742
  0
VERTEX
  8
0
 10
685.900990
 20
221.322085
 42
-0.025002
  0
VERTEX
  8
0
 10
679.463858
 20
221.000000
 42
-0.034366
  0
VERTEX
  8
0
 10
673.427454
 20
221.415388
 42
-0.166088
  0
VERTEX
  8
0
 10
670.400309
 20
222.940084
 42
-0.162596
  0
VERTEX
  8
0
 10
668.902814
 20
226.019118
 42
-0.032586
  0
VERTEX
  8
0
 10
668.500000
 20
232.193341
 42
-0.010110
  0
VERTEX
  8
0
 10
668.580551
 20
236.176853
 42
-0.054802
  0
VERTEX
  8
0
 10
668.902950
 20
238.311040
 42
-0.093651
  0
VERTEX
  8
0
 10
669.597795
 20
239.763611
 42
-0.064388
  0
VERTEX
  8
0
 10
670.860784
 20
241.088353
 42
-0.125600
  0
VERTEX
  8
0
 10
674.221056
 20
242.632565
 42
-0.045250
  0
VERTEX
  8
0
 10
679.500000
 20
243.111287
 42
-0.045250
  0
VERTEX
  8
0
 10
684.778944
 20
242.632565
 42
-0.125600
  0
SEQEND
  0
POLYLINE
  8
0
 66
1
 70
1
  0
VERTEX
  8
0
 10
191.000000
 20
216.348653
 42
0.188349
  0
VERTEX
  8
0
 10
191.625383
 20
214.747377
 42
0.003268
  0
VERTEX
  8
0
 10
198.121663
 20
207.790966
 42
0.008994
  0
VERTEX
  8
0
 10
204.894823
 20
200.885589
 42
0.014403
  0
VERTEX
  8
0
 10
210.945853
 20
195.267970
 42
0.031247
  0
VERTEX
  8
0
 10
226.191016
 20
183.509349
 42
0.029746
  0
VERTEX
  8
0
 10
243.028137
 20
173.529694
 42
0.029670
  0
VERTEX
  8
0
 10
260.975910
 20
165.595302
 42
0.030690
  0
VERTEX
  8
0
 10
279.537384
 20
159.943595
 42
0.021198
  0
VERTEX
  8
0
 10
290.921501
 20
157.732743
 42
0.015980
  0
VERTEX
  8
0
 10
303.580710
 20
156.238777
 42
0.016269
  0
VERTEX
  8
0
 10
315.730889
 20
155.594471
 42
0.031526
  0
VERTEX
  8
0
 10
325.443947
 20
156.008367
 42
0.023838
  0
VERTEX
  8
0
 10
347.936342
 20
159.483349
 42
0.032410
  0
VERTEX
  8
0
 10
367.746859
 20
164.875512
 42
0.033993
  0
VERTEX
  8
0
 10
385.936959
 20
172.534167
 42
0.030848
  0
VERTEX
  8
0
 10
403.547198
 20
182.808433
 42
0.017537
  0
VERTEX
  8
0
 10
411.473465
 20
188.525789
 42
0.011848
  0
VERTEX
  8
0
 10
420.115545
 20
195.566699
 42
0.011585
  0
VERTEX
  8
0
 10
427.876537
 20
202.519382
 42
0.035810
  0
VERTEX
  8
0
 10
432.648632
 20
207.688106
 42
0.000000
  0
VERTEX
  8
0
 10
435.797265
 20
211.630446
 42
0.000000
  0
VERTEX
  8
0
 10
422.820700
 20
209.752493
 42
0.000000
  0
VERTEX
  8
0
 10
409.844136
 20
207.874541
 42
0.000000
  0
VERTEX
  8
0
 10
400.875538
 20
201.065435
 42
-0.050127
  0
VERTEX
  8
0
 10
377.541821
 20
186.784947
 42
-0.047260
  0
VERTEX
  8
0
 10
351.374118
 20
177.096770
 42
-0.047350
  0
VERTEX
  8
0
 10
323.903247
 20
172.508155
 42
-0.050759
  0
VERTEX
  8
0
 10
296.707732
 20
173.339304
 42
0.006475
  0
VERTEX
  8
0
 10
292.072426
 20
173.893680
 42
0.008972
  0
VERTEX
  8
0
 10
287.903046
 20
174.262119
 42
0.006073
  0
VERTEX
  8
0
 10
284.420125
 20
174.464531
 42
0.103445
  0
VERTEX
  8
0
 10
283.293687
 20
174.282457
 42
-0.035499
  0
VERTEX
  8
0
 10
282.705541
 20
174.103457
 42
-0.125270
  0
VERTEX
  8
0
 10
282.313689
 20
174.113165
 42
-0.310625
  0
VERTEX
  8
0
 10
282.167215
 20
174.289044
 42
-0.161707
  0
VERTEX
  8
0
 10
282.234912
 20
174.580061
 42
0.376205
  0
VERTEX
  8
0
 10
282.171942
 20
174.945890
 42
0.082928
  0
VERTEX
  8
0
 10
281.569861
 20
175.286799
 42
0.049187
  0
VERTEX
  8
0
 10
280.528630
 20
175.554262
 42
0.024886
  0
VERTEX
  8
0
 10
279.180311
 20
175.694147
 42
0.010820
  0
VERTEX
  8
0
 10
277.515654
 20
175.747396
 42
0.085145
  0
VERTEX
  8
0
 10
276.755135
 20
175.625021
 42
0.473016
  0
VERTEX
  8
0
 10
276.653184
 20
175.352279
 42
0.120813
  0
VERTEX
  8
0
 10
277.031355
 20
174.959460
 42
-0.028025
  0
VERTEX
  8
0
 10
277.534036
 20
174.600615
 42
-0.107286
  0
VERTEX
  8
0
 10
277.774836
 20
174.303471
 42
-0.346706
  0
VERTEX
  8
0
 10
277.737121
 20
174.117602
 42
-0.177615
  0
VERTEX
  8
0
 10
277.500000
 20
174.030626
 42
-0.067616
  0
VERTEX
  8
0
 10
277.012663
 20
174.096832
 42
-0.024967
  0
VERTEX
  8
0
 10
276.353125
 20
174.315379
 42
-0.024204
  0
VERTEX
  8
0
 10
275.647707
 20
174.628962
 42
-0.026766
  0
VERTEX
  8
0
 10
275.000000
 20
175.000000
 42
-0.021149
  0
VERTEX
  8
0
 10
274.378141
 20
175.440231
 42
-0.167501
  0
VERTEX
  8
0
 10
274.187500
 20
175.730859
 42
-0.405416
  0
VERTEX
  8
0
 10
274.295085
 20
175.918023
 42
-0.066727
  0
VERTEX
  8
0
 10
274.750000
 20
175.984687
 42
0.205940
  0
VERTEX
  8
0
 10
275.687219
 20
176.401483
 42
0.443214
  0
VERTEX
  8
0
 10
275.625355
 20
177.100676
 42
0.068916
  0
VERTEX
  8
0
 10
273.637481
 20
178.214027
 42
0.019065
  0
VERTEX
  8
0
 10
270.250000
 20
179.392533
 42
-0.033211
  0
VERTEX
  8
0
 10
261.748237
 20
182.622506
 42
-0.013664
  0
VERTEX
  8
0
 10
250.679106
 20
188.062630
 42
-0.013768
  0
VERTEX
  8
0
 10
239.722354
 20
194.215271
 42
-0.027155
  0
VERTEX
  8
0
 10
231.449109
 20
199.796572
 42
0.010564
  0
VERTEX
  8
0
 10
226.022979
 20
203.725137
 42
0.036539
  0
VERTEX
  8
0
 10
222.288061
 20
205.925977
 42
0.037815
  0
VERTEX
  8
0
 10
218.338313
 20
207.521198
 42
0.011911
  0
VERTEX
  8
0
 10
212.221281
 20
209.309559
 42
-0.007549
  0
VERTEX
  8
0
 10
207.884838
 20
210.536390
 42
-0.006459
  0
VERTEX
  8
0
 10
203.354747
 20
211.956210
 42
-0.006518
  0
VERTEX
  8
0
 10
199.270734
 20
213.353606
 42
-0.018421
  0
VERTEX
  8
0
 10
196.471281
 20
214.470282
 42
0.007772
  0
VERTEX
  8
0
 10
194.372662
 20
215.359654
 42
0.013649
  0
VERTEX
  8
0
 10
192.607189
 20
216.020163
 42
0.008023
  0
VERTEX
  8
0
 10
191.182909
 20
216.483729
 42
0.504640
  0
SEQEND
  0
POLYLINE
  8
0
 66
1
 70
1
  0
VERTEX
  8
0
 10
280.531896
 20
172.051608
 42
-0.150038
  0
VERTEX
  8
0
 10
279.631347
 20
171.262773
 42
-0.053349
  0
VERTEX
  8
0
 10
277.986343
 20
170.726899
 42
-0.061421
  0
VERTEX
  8
0
 10
276.478137
 20
170.597429
 42
-0.403402
  0
VERTEX
  8
0
 10
276.000000
 20
171.093620
 42
-0.211235
  0
VERTEX
  8
0
 10
276.153270
 20
171.440227
 42
-0.081032
  0
VERTEX
  8
0
 10
276.604836
 20
171.733751
 42
-0.061682
  0
VERTEX
  8
0
 10
277.270721
 20
171.933524
 42
-0.042090
  0
VERTEX
  8
0
 10
278.059017
 20
172.000000
 42
0.042046
  0
VERTEX
  8
0
 10
278.891493
 20
172.070128
 42
0.136098
  0
VERTEX
  8
0
 10
279.389078
 20
172.303543
 42
0.229040
  0
VERTEX
  8
0
 10
279.550979
 20
172.674693
 42
0.129362
  0
VERTEX
  8
0
 10
279.404508
 20
173.154508
 42
-0.028948
  0
VERTEX
  8
0
 10
279.154868
 20
173.616187
 42
-0.323892
  0
VERTEX
  8
0
 10
279.191836
 20
173.809820
 42
-0.309012
  0
VERTEX
  8
0
 10
279.391571
 20
173.841292
 42
-0.027620
  0
VERTEX
  8
0
 10
279.861803
 20
173.585410
 42
-0.067437
  0
VERTEX
  8
0
 10
280.271867
 20
173.248178
 42
-0.084196
  0
VERTEX
  8
0
 10
280.541606
 20
172.836368
 42
-0.099603
  0
VERTEX
  8
0
 10
280.632600
 20
172.416343
 42
-0.143055
  0
SEQEND
  0
ENDSEC
  0
EOF
