M48
; DRILL file {KiCad (5.1.9)-1} date 07/18/21 17:28:15
; FORMAT={-:-/ absolute / metric / decimal}
; #@! TF.CreationDate,2021-07-18T17:28:15-05:00
; #@! TF.GenerationSoftware,Kicad,Pcbnew,(5.1.9)-1
; #@! TF.FileFunction,Plated,1,2,PTH
FMAT,2
METRIC
T1C0.300
T2C0.400
T3C1.000
T4C1.200
T5C1.400
T6C1.600
%
G90
G05
T1
X140.9Y-63.085
X140.9Y-64.185
X140.9Y-65.485
X140.9Y-66.685
X142.1Y-63.085
X142.1Y-64.185
X142.1Y-65.485
X142.1Y-66.685
T2
X127.533Y-68.326
X127.559Y-61.874
X127.762Y-112.776
X130.988Y-116.078
X137.401Y-65.52
X138.0Y-121.75
X138.125Y-60.782
X141.75Y-121.75
X141.75Y-126.0
X145.034Y-72.034
X149.504Y-112.801
X152.73Y-115.951
X158.344Y-69.494
X158.394Y-60.731
X159.74Y-121.75
X163.49Y-121.75
X163.49Y-126.0
X163.957Y-97.511
X173.38Y-97.485
X174.473Y-97.688
X175.1Y-67.1
X175.158Y-116.027
X177.089Y-118.542
X177.6Y-67.1
X177.75Y-91.95
X177.75Y-95.0
X177.85Y-89.0
X179.299Y-75.057
X179.299Y-78.232
X179.807Y-89.002
X179.857Y-94.996
X180.1Y-67.1
X181.229Y-78.207
X182.499Y-79.68
X182.7Y-67.1
X183.35Y-90.65
X183.845Y-93.142
X183.998Y-87.833
X186.487Y-85.827
X187.579Y-89.941
X192.253Y-95.529
X192.43Y-89.967
X194.412Y-99.543
X194.5Y-86.75
X194.5Y-88.75
X195.91Y-99.898
X196.0Y-121.75
X196.0Y-126.0
X197.0Y-85.75
X197.0Y-87.75
X201.727Y-116.053
X203.606Y-118.542
X218.725Y-121.775
X222.75Y-122.25
X222.75Y-126.0
T3
X202.5Y-72.5
X202.5Y-75.04
X202.5Y-77.58
X202.5Y-80.12
X202.5Y-84.25
X202.5Y-86.79
X202.5Y-89.33
X202.5Y-91.87
X202.5Y-96.0
X202.5Y-98.54
X202.5Y-101.08
X202.5Y-103.62
T4
X137.92Y-51.5
X143.0Y-51.5
X165.76Y-51.0
X170.84Y-51.0
X175.92Y-51.0
X181.0Y-51.0
X188.26Y-51.0
X193.34Y-51.0
X198.42Y-51.0
X203.5Y-51.0
T5
X137.92Y-144.5
X143.0Y-144.5
X162.633Y-144.5
X167.713Y-144.5
X181.757Y-144.5
X186.837Y-144.5
X205.96Y-144.5
X211.04Y-144.5
T6
X138.0Y-136.7
X146.0Y-136.7
X160.0Y-136.7
X168.0Y-136.7
X182.0Y-136.7
X190.0Y-136.7
X204.0Y-136.7
X212.0Y-136.7
T0
M30
